<svg xmlns="http://www.w3.org/2000/svg" xmlns:xlink="http://www.w3.org/1999/xlink" width="205" height="272" viewBox="0 0 205 272">
  <defs>
    <linearGradient id="linear-gradient" x1="0.038" y1="0.062" x2="0.994" y2="0.934" gradientUnits="objectBoundingBox">
      <stop offset="0" stop-color="#f0f9a7"/>
      <stop offset="1" stop-color="#e8bdf9"/>
    </linearGradient>
    <filter id="Ellipse_41" x="12.285" y="81" width="191" height="191" filterUnits="userSpaceOnUse">
      <feOffset dx="3" dy="3" input="SourceAlpha"/>
      <feGaussianBlur stdDeviation="10" result="blur"/>
      <feFlood flood-opacity="0.161"/>
      <feComposite operator="in" in2="blur"/>
      <feComposite in="SourceGraphic"/>
    </filter>
    <linearGradient id="linear-gradient-2" x1="0.877" y1="1" x2="0.877" gradientUnits="objectBoundingBox">
      <stop offset="0" stop-color="gray" stop-opacity="0.251"/>
      <stop offset="0.54" stop-color="gray" stop-opacity="0.122"/>
      <stop offset="1" stop-color="gray" stop-opacity="0.102"/>
    </linearGradient>
    <linearGradient id="linear-gradient-3" x1="0.5" y1="1" x2="0.5" y2="0" xlink:href="#linear-gradient-2"/>
  </defs>
  <g id="feature-1" transform="translate(-360 -1127)">
    <g id="amoeba1" transform="translate(0 63)" opacity="0.05">
      <path id="Path_28811" data-name="Path 28811" d="M5579.86,1186.46c6.777-47.581,53.078-19.562,88.186-37.079s68.166-23.6,101.8,15.495-20.84,46.791-52.17,89.239-32.549,102.039-76.734,85.59S5573.083,1234.041,5579.86,1186.46Z" transform="translate(-5218.715 -40)" fill="url(#linear-gradient)"/>
      <rect id="Rectangle_2910" data-name="Rectangle 2910" width="204" height="269" transform="translate(361 1064)" fill="none"/>
    </g>
    <g id="illustation1">
      <g transform="matrix(1, 0, 0, 1, 360, 1127)" filter="url(#Ellipse_41)">
        <circle id="Ellipse_41-2" data-name="Ellipse 41" cx="65.5" cy="65.5" r="65.5" transform="translate(39.29 108)" fill="#fff"/>
      </g>
      <g id="undraw_work_chat_erdt" transform="translate(368.984 1180.996)">
        <ellipse id="Ellipse_46" data-name="Ellipse 46" cx="43.17" cy="1.97" rx="43.17" ry="1.97" transform="translate(49.953 99.316)" fill="#1ed7b5" opacity="0.1"/>
        <path id="Path_28817" data-name="Path 28817" d="M376.358,199.955a39.138,39.138,0,1,1,39.132-39.138A39.181,39.181,0,0,1,376.358,199.955Zm0-77.895a38.757,38.757,0,1,0,38.757,38.757A38.8,38.8,0,0,0,376.358,122.06Z" transform="translate(-284.684 -106.805)" fill="#fff"/>
        <path id="Path_28818" data-name="Path 28818" d="M413.747,228.569A30.355,30.355,0,1,1,444.1,198.215,30.392,30.392,0,0,1,413.747,228.569Zm0-60.329a29.974,29.974,0,1,0,29.974,29.974,30.009,30.009,0,0,0-29.974-29.974Z" transform="translate(-322.073 -144.202)" fill="#fff"/>
        <path id="Path_28819" data-name="Path 28819" d="M453.921,259.3a20.921,20.921,0,1,1,20.921-20.921A20.921,20.921,0,0,1,453.921,259.3Zm0-41.462a20.541,20.541,0,1,0,20.541,20.541,20.541,20.541,0,0,0-20.541-20.541Z" transform="translate(-362.247 -184.369)" fill="#fff"/>
        <ellipse id="Ellipse_47" data-name="Ellipse 47" cx="2.714" cy="0.898" rx="2.714" ry="0.898" transform="translate(183.685 75.783)" fill="#1ed7b5" opacity="0.1"/>
        <ellipse id="Ellipse_48" data-name="Ellipse 48" cx="15.984" cy="2.623" rx="15.984" ry="2.623" transform="translate(17.988 121.352)" fill="#1ed7b5" opacity="0.1"/>
        <g id="Group_8087" data-name="Group 8087" transform="translate(10.679 51.302)" opacity="0.1">
          <path id="Path_28820" data-name="Path 28820" d="M168.452,313.21H119.689a2.556,2.556,0,0,0-2.549,2.549V346.57a2.556,2.556,0,0,0,2.549,2.549h38.253s.991,5.261-2.265,5.827c0,0,7.292.523,6.018-5.827h6.758A2.556,2.556,0,0,0,171,346.57V315.759A2.556,2.556,0,0,0,168.452,313.21Z" transform="translate(-117.14 -313.21)"/>
          <g id="Group_8086" data-name="Group 8086" transform="translate(7.178 8.178)" opacity="0.2">
            <rect id="Rectangle_2887" data-name="Rectangle 2887" width="39.503" height="2.408" rx="1.204"/>
            <rect id="Rectangle_2888" data-name="Rectangle 2888" width="39.503" height="2.408" rx="1.204" transform="translate(0 10.761)"/>
            <rect id="Rectangle_2889" data-name="Rectangle 2889" width="33.128" height="2.408" rx="1.204" transform="translate(0 16.14)"/>
            <rect id="Rectangle_2890" data-name="Rectangle 2890" width="17.129" height="2.408" rx="1.204" transform="translate(0 5.381)"/>
          </g>
        </g>
        <path id="Path_28821" data-name="Path 28821" d="M170.684,312.09H121.919a2.556,2.556,0,0,0-2.549,2.549V345.45A2.556,2.556,0,0,0,121.919,348h38.253s.993,5.261-2.265,5.826c0,0,7.292.523,6.018-5.826h6.759a2.554,2.554,0,0,0,2.547-2.549V314.639A2.554,2.554,0,0,0,170.684,312.09Z" transform="translate(-108.267 -261.001)" fill="#fff" stroke="#707070" stroke-width="1"/>
        <g id="Group_8088" data-name="Group 8088" transform="translate(18.282 59.267)" opacity="0.2">
          <rect id="Rectangle_2891" data-name="Rectangle 2891" width="39.503" height="2.408" rx="1.204" fill="#1ed7b5"/>
          <rect id="Rectangle_2892" data-name="Rectangle 2892" width="39.503" height="2.408" rx="1.204" transform="translate(0 10.761)" fill="#1ed7b5"/>
          <rect id="Rectangle_2893" data-name="Rectangle 2893" width="33.128" height="2.408" rx="1.204" transform="translate(0 16.142)" fill="#1ed7b5"/>
          <rect id="Rectangle_2894" data-name="Rectangle 2894" width="17.129" height="2.408" rx="1.204" transform="translate(0 5.381)" fill="#1ed7b5"/>
        </g>
        <path id="Path_28822" data-name="Path 28822" d="M252.376,296.085l-2.7,5.748a4.923,4.923,0,0,1-.656,1.278,29.736,29.736,0,0,0-1.392,3.614l-2.9,4.477h0l-.19.3-1.141-.314-.8-2.98.049-.865v-.108a17.855,17.855,0,0,1,2.191-2.018s.312.036.911-1.417a3.718,3.718,0,0,1,1.141-1.769l.312-1.054,3.359-5.346s2.815-4.038,3.581-2.246S252.376,296.085,252.376,296.085Z" transform="translate(-208.06 -245.485)" fill="#ffd2c6"/>
        <path id="Path_28823" data-name="Path 28823" d="M202.193,517.133a.647.647,0,0,1-.091.276c-.312.455-2.075,9.755-2.075,9.755a5.249,5.249,0,0,1-.514,2.448,35.21,35.21,0,0,0-.825,3.526s-.141,6.371-.51,7.366a7.686,7.686,0,0,0,.118,3.129,4.79,4.79,0,0,0,.9,2.547c.027.034.048.068.068.1.114.164.19.257.19.257a1.482,1.482,0,0,0,.4.493c.025.021.051.04.08.061a4.528,4.528,0,0,0,1.594.673l.055.011c.228.051.38.07.38.07l.141.761-1.506.312-2.872.19s-3.385.257-2.617-1.251a2.387,2.387,0,0,0,.139-.32h0c.029-.072.055-.148.078-.224a7.807,7.807,0,0,0,.15-3.21l-.662-5.126c-1.078-4.778.852-10.1.852-10.1a2.462,2.462,0,0,1,.2-1.506,10.127,10.127,0,0,0,0-3.441s-.19-3.043-.455-4.551a9.2,9.2,0,0,1-.1-1.915,9.566,9.566,0,0,1,.1-1.122l6.486-.86A5,5,0,0,1,202.193,517.133Z" transform="translate(-169.099 -425.708)" fill="#ffd2c6"/>
        <path id="Path_28824" data-name="Path 28824" d="M204.232,678.74l-1.506.312-2.872.19s-3.385.257-2.617-1.251a2.385,2.385,0,0,0,.139-.32h0c.029-.072.055-.148.078-.224a5.21,5.21,0,0,1,1.712.346,1.563,1.563,0,0,0,1.691-.6l.468-.894.068-.129c.114.164.19.257.19.257a1.521,1.521,0,0,0,.477.552l-.08.167-.455.951s.582.059,1.379.19a.616.616,0,0,0,.749-.411l.055.011c.228.051.38.07.38.07Z" transform="translate(-171.233 -555.836)" opacity="0.1"/>
        <path id="Path_28825" data-name="Path 28825" d="M204.58,680.445c-.114.512-3.285.669-3.285.669s-1.765-.171-2.259.242-1.951.314-2.008.314-.824-.03-1.124-1.407c-.291-1.343.392-1.577.426-1.588h0a5.159,5.159,0,0,1,1.794.348,1.563,1.563,0,0,0,1.691-.6l.536-1.025c.114.164.19.257.19.257a1.5,1.5,0,0,0,.477.553l-.534,1.124s.582.059,1.379.19a.659.659,0,0,0,.8-.626.651.651,0,0,0,0-.086s.5.143,1.107.314A1.141,1.141,0,0,1,204.58,680.445Z" transform="translate(-170.186 -556.832)" fill="#626696"/>
        <path id="Path_28826" data-name="Path 28826" d="M243.021,520.788c-.076.455-.154,1.632-.154,1.632a9.337,9.337,0,0,1-.417,3.326l-.34,1.331c.152,1.712-.938,5.879-.938,5.879s-.73,3.869-1.111,5.538a4.6,4.6,0,0,0,.19,2.788c.019.046.03.068.03.068a.319.319,0,0,0,.023.093c.01.03.025.091.04.135a2.054,2.054,0,0,0,.38.635,1.929,1.929,0,0,0,.2.209l.011.011a4.116,4.116,0,0,0,1.21.744h0l.19.076a5.708,5.708,0,0,0,.6.19h0a.64.64,0,0,0,.068.015l-.154.894-2.008-.513-2.691-.873-1.331-.761s.015-.072.042-.211v-.023c.011-.059.023-.129.04-.209a27.238,27.238,0,0,0,.483-6.866c-.321-3,.926-7.13,1.231-8.115a4.92,4.92,0,0,0,.228-1.744c-.495-.723-.609-3.6-.609-3.6s-.909-1.86-1.662-3.832a10.082,10.082,0,0,1-.542-1.993,6.97,6.97,0,0,1-.11-1.457s6.109-5.575,6.778-.177c.023.19.044.358.065.529C243.356,519.44,243.094,520.349,243.021,520.788Z" transform="translate(-202.654 -422.585)" fill="#ffd2c6"/>
        <path id="Path_28827" data-name="Path 28827" d="M246.905,670.069l-.154.894-2.008-.513-2.691-.873-1.331-.761s.015-.072.042-.211v-.023c.011-.059.023-.129.04-.209l.19-.019h.015a2.533,2.533,0,0,1,1.128.152c.437.165,1.012.354,1.13.274a1.438,1.438,0,0,1,.645-.114l.28-.612.04-.093a2.031,2.031,0,0,0,.38.635,2.145,2.145,0,0,0,.215.221l-.011.217-.015.306a3.913,3.913,0,0,0,.966.447.559.559,0,0,0,.27,0h0l.19.076a5.709,5.709,0,0,0,.6.19h0A.619.619,0,0,0,246.905,670.069Z" transform="translate(-206.538 -549.188)" opacity="0.1"/>
        <path id="Path_28828" data-name="Path 28828" d="M245.08,672.949c-.561-.162-1.913-.418-2.132-.219a7.3,7.3,0,0,1-2.092,0,1.141,1.141,0,0,1-.968-.571,5.948,5.948,0,0,1-.074-2.57l.139-.013.232-.023h.015a2.5,2.5,0,0,1,1.128.152,2.7,2.7,0,0,0,1.13.274,1.411,1.411,0,0,1,.645-.114l.32-.706a2.054,2.054,0,0,0,.38.635,2.157,2.157,0,0,0,.215.221l-.027.523a3.938,3.938,0,0,0,.966.445.38.38,0,0,0,.464-.146.288.288,0,0,0,.034-.078h0a3.269,3.269,0,0,0,.793.264h0a1.452,1.452,0,0,1,1.548,1.115C248.082,673.009,245.63,673.108,245.08,672.949Z" transform="translate(-205.709 -550.159)" fill="#626696"/>
        <path id="Path_28829" data-name="Path 28829" d="M205.717,517.108c-.126.036-.24.07-.346.1a4.8,4.8,0,0,1-.839.177,34.954,34.954,0,0,1-5.692.042,9.566,9.566,0,0,1,.1-1.122l6.486-.86A5.081,5.081,0,0,1,205.717,517.108Z" transform="translate(-172.623 -425.684)" opacity="0.1"/>
        <path id="Path_28830" data-name="Path 28830" d="M208.937,477.878s-2.381.369-4.317.793c-.647.141-1.244.287-1.685.432a5.179,5.179,0,0,1-.839.177,37.711,37.711,0,0,1-5.987.023c-1.052-3.412,1.278-7.708,1.278-7.708a4.325,4.325,0,0,1,.485-1.392l.01-.034.331-1.217h8.846l.108.523.224,1.065,1.388,6.594Z" transform="translate(-170.19 -388.028)" fill="#626696"/>
        <path id="Path_28831" data-name="Path 28831" d="M242.77,514.5l-.053.023-1.035.458c-1.12.517-4.473.614-5.645.624a6.971,6.971,0,0,1-.11-1.457s6.109-5.575,6.778-.177C242.728,514.159,242.749,514.325,242.77,514.5Z" transform="translate(-202.654 -422.577)" opacity="0.1"/>
        <path id="Path_28832" data-name="Path 28832" d="M219.473,479.436l-.217.1-1.035.46c-1.141.525-4.6.618-5.706.624h-.291a1.333,1.333,0,0,1-1.023-.622c0-.068-.053-.405-.1-.694-.038-.232-.072-.432-.072-.432a26.564,26.564,0,0,1-3.441-1.782c-.869-.591-.65-4.795-.481-6.908.059-.728.11-1.208.11-1.208l8.954.523,1.255.072.719.16.19.04a30.636,30.636,0,0,0,.761,4.066c.247.312.087,1.366.057,1.965a3.648,3.648,0,0,1-.084.761,4.7,4.7,0,0,1,.281,1.643A3.277,3.277,0,0,0,219.473,479.436Z" transform="translate(-179.193 -388.044)" fill="#626696"/>
        <circle id="Ellipse_49" data-name="Ellipse 49" cx="3.669" cy="3.669" r="3.669" transform="translate(27.027 52.877)" fill="#ffd2c6"/>
        <path id="Path_28833" data-name="Path 28833" d="M200.165,348.774s.255,3.475-.455,4.272a31.753,31.753,0,0,1-2.56,2.3l.571,2.36,3.214.371,3.754-4.011-.854-1.052s-.654-2.22-.114-3.328S200.165,348.774,200.165,348.774Z" transform="translate(-171.254 -290.698)" fill="#ffd2c6"/>
        <path id="Path_28834" data-name="Path 28834" d="M244.728,371.152h0l-.19.3-1.141-.314-.8-2.98.049-.865.234-.337s1.251.03,1.2,1.168A9.976,9.976,0,0,0,244.728,371.152Z" transform="translate(-208.06 -305.435)" opacity="0.1"/>
        <path id="Path_28835" data-name="Path 28835" d="M218.041,470.2s-.905.2-1.942.337a5.633,5.633,0,0,1-2.724-.082c-.824-.487-5.285-.348-6.565-.3a1.467,1.467,0,0,0-.221.009l.331-1.217h8.846l.108.523,1.255.072.719.16C217.969,470,218.041,470.2,218.041,470.2Z" transform="translate(-178.899 -388.028)" opacity="0.1"/>
        <path id="Path_28836" data-name="Path 28836" d="M194.516,368.15s1.251.029,1.194,1.166a10.5,10.5,0,0,0,.683,3.1l-.285.654s-.4,1.592-.086,1.991,1.451.4.8,3.669a11.728,11.728,0,0,0,.2,3.243c.34.8.34,2.7.852,3.5a19.222,19.222,0,0,1,1.2,2.646s-3.7.824-4.665.255-6.912-.28-6.912-.28.029-1,0-1.109a.951.951,0,0,1,.143-.727c.19-.27.512-.725.34-1.122s.428-.985.114-1.6-.694-.74-.618-1.076a1.459,1.459,0,0,0-.348-1.077c-.226-.283-1.765-3.29-1.765-3.29l-.255-1.409s-1.98-1.451-1.944-2.134a3.993,3.993,0,0,1,.749-1.628l1.9-1.87s1.052,1.141,2.075.74a18.906,18.906,0,0,0,3.231-2.3s.787-.426.844-.738.54-.029.54-.029.711-.39.854-.253a2.469,2.469,0,0,0,.761.253Z" transform="translate(-159.923 -306.399)" fill="#ffcde5"/>
        <path id="Path_28837" data-name="Path 28837" d="M147.427,399.3l-.607.474a8.1,8.1,0,0,0-.761,3.1,42.473,42.473,0,0,1-.761,4.8l-1.194,2.136a53.953,53.953,0,0,0-2.223,5.215,13.608,13.608,0,0,1-1.423,2.944s-3.954,3.553-1.194,4.184,2.843-2.828,2.843-2.828a3.737,3.737,0,0,0,.749-1.194c.1-.483,3.6-6.67,3.6-6.67s1.225-1.664.968-2.545a26.558,26.558,0,0,0,1.592-4.684,16.637,16.637,0,0,0-.255-2.33l.255-1.963Z" transform="translate(-123.585 -331.624)" fill="#ffd2c6"/>
        <path id="Path_28838" data-name="Path 28838" d="M214.963,440.53a28.208,28.208,0,0,1-3.328,1.535c-.54.076,2.36-.3,2.36-.3Z" transform="translate(-182.93 -365.013)" opacity="0.1"/>
        <path id="Path_28839" data-name="Path 28839" d="M218.705,446.51s-3.7,1.251-5.325,1.023C213.388,447.533,217.425,448.3,218.705,446.51Z" transform="translate(-184.397 -369.855)" opacity="0.1"/>
        <path id="Path_28840" data-name="Path 28840" d="M220.051,448.66s-3.328,2.092-5.291,1.752c0,0,4.58.911,5.291.428L218,450.269S220.279,449.067,220.051,448.66Z" transform="translate(-185.515 -371.597)" opacity="0.1"/>
        <path id="Path_28841" data-name="Path 28841" d="M178.484,306.482a3.465,3.465,0,0,0-2.8.529c-.571.449-.951,1.141-1.592,1.468a9.364,9.364,0,0,1-1.04.367,3,3,0,0,0-1.832,3.233c.1.571.365,1.084.494,1.639a6.406,6.406,0,0,1-.224,3.02,31.781,31.781,0,0,1-3.167,7.842.822.822,0,0,0-.158.527.761.761,0,0,0,.19.337,7.417,7.417,0,0,0,5.462,2.109,4.137,4.137,0,0,0,2.164-.359,3.271,3.271,0,0,0,1.056-.968,5.135,5.135,0,0,0,.985-3.311,9.082,9.082,0,0,1-.135-2.841.761.761,0,0,1,.171-.348c.217-.221.571-.164.882-.2a1.947,1.947,0,0,0,1.474-1.811,20.649,20.649,0,0,0-.114-2.514,5.267,5.267,0,0,1,.991-3.1,3.339,3.339,0,0,0,.727-1.238,2.076,2.076,0,0,0-.531-1.522,7.454,7.454,0,0,0-1.4-2.162A3.788,3.788,0,0,0,178.484,306.482Z" transform="translate(-147.782 -256.391)" opacity="0.1"/>
        <path id="Path_28842" data-name="Path 28842" d="M177.323,305.282a3.46,3.46,0,0,0-2.8.531c-.571.447-.951,1.141-1.592,1.468a9.188,9.188,0,0,1-1.038.365,3,3,0,0,0-1.833,3.233c.1.571.365,1.084.5,1.641a6.423,6.423,0,0,1-.224,3.018,31.8,31.8,0,0,1-3.161,7.842.8.8,0,0,0-.156.525.732.732,0,0,0,.19.337,7.42,7.42,0,0,0,5.462,2.109,4.136,4.136,0,0,0,2.164-.358,3.279,3.279,0,0,0,1.056-.97,5.135,5.135,0,0,0,.979-3.3,9.033,9.033,0,0,1-.133-2.843.761.761,0,0,1,.169-.348c.217-.221.571-.164.884-.19a1.946,1.946,0,0,0,1.472-1.813,20.281,20.281,0,0,0-.114-2.514,5.266,5.266,0,0,1,.989-3.106,3.326,3.326,0,0,0,.725-1.24,2.077,2.077,0,0,0-.529-1.522,7.387,7.387,0,0,0-1.406-2.161A3.77,3.77,0,0,0,177.323,305.282Z" transform="translate(-146.849 -255.42)" fill="#985c7e"/>
        <path id="Path_28843" data-name="Path 28843" d="M214.76,492.62s.73,3.412,1.944,4.342Z" transform="translate(-185.515 -407.196)" opacity="0.1"/>
        <g id="Group_8089" data-name="Group 8089" transform="translate(20.159 53.242)" opacity="0.1">
          <path id="Path_28844" data-name="Path 28844" d="M183.627,337.378c-.038-.133-.082-.266-.127-.4C183.538,337.113,183.582,337.246,183.627,337.378Z" transform="translate(-180.36 -334.399)"/>
          <path id="Path_28845" data-name="Path 28845" d="M180.634,323.41a1.234,1.234,0,0,1-.015.321,3.372,3.372,0,0,1-.727,1.24,5.251,5.251,0,0,0-.991,3.094,21.442,21.442,0,0,1,.112,2.514,1.95,1.95,0,0,1-1.472,1.813c-.308.036-.668-.023-.882.19a.761.761,0,0,0-.171.348,9.267,9.267,0,0,0,.133,2.843,5.135,5.135,0,0,1-.978,3.3,3.3,3.3,0,0,1-1.056.97,4.254,4.254,0,0,1-2.166.358,7.48,7.48,0,0,1-5.394-2.037.521.521,0,0,0-.032.274.732.732,0,0,0,.19.337,7.42,7.42,0,0,0,5.462,2.109,4.136,4.136,0,0,0,2.164-.358,3.3,3.3,0,0,0,1.056-.97,5.135,5.135,0,0,0,.979-3.3,9.033,9.033,0,0,1-.133-2.843.761.761,0,0,1,.169-.348c.217-.221.571-.164.884-.19a1.946,1.946,0,0,0,1.472-1.813,20.279,20.279,0,0,0-.114-2.514,5.266,5.266,0,0,1,.989-3.094,3.326,3.326,0,0,0,.725-1.24A1.409,1.409,0,0,0,180.634,323.41Z" transform="translate(-166.989 -323.41)"/>
        </g>
        <path id="Path_28846" data-name="Path 28846" d="M554.855,807.43s-7.237-.437-6.383,4.633a1.237,1.237,0,0,0,.643,1.3s.013-.38.742-.247a3.332,3.332,0,0,0,.785.038,1.641,1.641,0,0,0,.962-.4h0s2.033-.841,2.824-4.165c0,0,.586-.725.571-.911l-1.221.521a2.188,2.188,0,0,1,.087,1.613s-.038-1.581-.274-1.542c-.048,0-.633.3-.633.3a3.609,3.609,0,0,1,.175,2.649s.205-1.891-.4-2.537l-.86.5a3.8,3.8,0,0,1,.27,2.88s.146-1.984-.451-2.756l-.78.607a3.706,3.706,0,0,1,.308,2.634s-.063-2.309-.477-2.473a4.677,4.677,0,0,0-.784.846s.538,1.141.2,1.733c0,0-.205-1.539-.38-1.544a5.119,5.119,0,0,0-.749,1.712,3.705,3.705,0,0,1,.584-1.816,2.037,2.037,0,0,0-1.038.538s.1-.721,1.206-.784a5.2,5.2,0,0,1,.711-.82,4.459,4.459,0,0,0-1.759.2,1.987,1.987,0,0,1,1.961-.38l.761-.628a6.562,6.562,0,0,0-2.054.021,2.493,2.493,0,0,1,2.261-.164l.837-.5a7.6,7.6,0,0,0-1.961-.169,3,3,0,0,1,2.206.036l.6-.27s-.9-.177-1.164-.2-.278-.1-.278-.1a3.111,3.111,0,0,1,1.691.19A7.716,7.716,0,0,0,554.855,807.43Z" transform="translate(-455.701 -662.123)" fill="#1ed7b5"/>
        <ellipse id="Ellipse_50" data-name="Ellipse 50" cx="5.122" cy="0.865" rx="5.122" ry="0.865" transform="translate(89.047 150.82)" fill="#1ed7b5" opacity="0.1"/>
        <path id="Path_28847" data-name="Path 28847" d="M852.971,774.83s-7.227-.436-6.383,4.635a1.237,1.237,0,0,0,.643,1.3s.013-.38.742-.249a3.352,3.352,0,0,0,.787.038,1.624,1.624,0,0,0,.96-.4h0s2.035-.839,2.824-4.163c0,0,.586-.727.571-.913l-1.229.533a2.194,2.194,0,0,1,.089,1.613s-.04-1.582-.274-1.544c-.047,0-.635.3-.635.3a3.62,3.62,0,0,1,.177,2.651s.205-1.891-.4-2.539l-.86.5a3.794,3.794,0,0,1,.27,2.878s.146-1.984-.451-2.756l-.778.6a3.715,3.715,0,0,1,.306,2.636s-.063-2.311-.476-2.484a4.77,4.77,0,0,0-.785.848s.54,1.141.205,1.731c0,0-.205-1.537-.38-1.544a5.12,5.12,0,0,0-.749,1.712,3.7,3.7,0,0,1,.586-1.816,2.046,2.046,0,0,0-1.04.538s.106-.719,1.208-.784a5.2,5.2,0,0,1,.711-.82,4.47,4.47,0,0,0-1.761.2,1.975,1.975,0,0,1,1.961-.371l.761-.628a6.564,6.564,0,0,0-2.054.021,2.5,2.5,0,0,1,2.261-.164l.837-.5a7.533,7.533,0,0,0-1.963-.169,3.013,3.013,0,0,1,2.208.034l.6-.268s-.9-.177-1.166-.205-.278-.1-.278-.1a3.117,3.117,0,0,1,1.693.19A7.731,7.731,0,0,0,852.971,774.83Z" transform="translate(-697.119 -635.724)" fill="#1ed7b5"/>
        <ellipse id="Ellipse_51" data-name="Ellipse 51" cx="5.122" cy="0.865" rx="5.122" ry="0.865" transform="translate(145.745 144.62)" fill="#1ed7b5" opacity="0.1"/>
        <ellipse id="Ellipse_52" data-name="Ellipse 52" cx="14.749" cy="2.419" rx="14.749" ry="2.419" transform="translate(146.563 80.666)" fill="#1ed7b5" opacity="0.1"/>
        <path id="Path_28848" data-name="Path 28848" d="M835.2,114.832a7.918,7.918,0,0,0,0-4.043v-1.9a6.66,6.66,0,0,0-2.377-6.122l-2.035-1.794a7.69,7.69,0,0,0-1.47-1.04,1.492,1.492,0,0,0-.19-.029l-.061-.034a6.127,6.127,0,0,1-.445-.938.869.869,0,0,0,.725-.247.951.951,0,0,0,.171-.285h0c.118-.264.137-.584.238-.865a2.019,2.019,0,0,1,.38-.622c-.021.034-.042.067-.061.1.287-.358.664-.666.932-1.044a2.273,2.273,0,0,0,.148-.232l-.04.048a5.227,5.227,0,0,0,.6-2.031,1.833,1.833,0,0,0,.011-.727,2.421,2.421,0,0,0-.2-.46c-.441-.913-.432-2.058-1.141-2.786a3.411,3.411,0,0,0-2.092-.806,5.4,5.4,0,0,1-2.2-.544,2.386,2.386,0,0,0-.6-.329.493.493,0,0,0-.588.219.38.38,0,0,1-.078.158.253.253,0,0,1-.226.013l-1.008-.27.011.051h-.025l.036.16a.089.089,0,0,1,.1.055l-.162.249a2.5,2.5,0,0,1-.911-.19.445.445,0,0,0,0,.049h-.013c-.019.285.3.47.4.738a.559.559,0,0,1,0,.361.821.821,0,0,1-.19.289c-.359.354-.816.283-1.229.508a.262.262,0,0,0-.15.165.127.127,0,0,0-.013.091.213.213,0,0,0,.084.1,1.9,1.9,0,0,0,.392.243l-.118.114a4.515,4.515,0,0,0,1.56,7.362c.015.078.027.158.038.243v.023l.011.108-1.36.571a1.082,1.082,0,0,1-.974-.626c-.316-.654-1.432,0-1.432,0s-3.41-.257-4.671.371c0,0-2.035-.854-2.32-.911s-.717-.285-.919-.228-.458-.38-.6-.342-.19-.283-.658-.4-.631.029-1.141-.485a44.821,44.821,0,0,0-4.7-2.533l-1.891-1.539-2.007-1.594-.036.067c-.011-.048-.025-.1-.038-.148a19.015,19.015,0,0,0-.744-2.339c-.129-.308-.19-.7-.359-.493-.107.124-.289-.146-.571-.329a.474.474,0,0,0-.708.205h0c-1.561,2.448-2.121,2.625-1.215,3.52.8.8,1.341,1.5,2,1.712l.078.025a.111.111,0,0,1-.044,0l3.8,4.555a22.813,22.813,0,0,0,4.643,3.161c1.892.768,1.748,1,1.748,1s5.731,2.9,6.619,2.853.717,5.951.344,6.919-.974,7.973-.974,7.973a3.353,3.353,0,0,0,.029,2.5,15.8,15.8,0,0,1,.013,2.433,8.347,8.347,0,0,0-1.388,3.576,2.052,2.052,0,0,1-.023.217.493.493,0,0,1-.135.11s.049-.011.127-.038a7.226,7.226,0,0,1-.38,1.712,6.973,6.973,0,0,0-.468,2.472v4.525l-.378,2.805s-.458,2.124,0,2.619a1.2,1.2,0,0,1,.251.873,1.617,1.617,0,0,0,.293,1.018.772.772,0,0,1,.19.654c-.152.493.224,5.73.224,5.73a5.825,5.825,0,0,1-.262,1.522c-.152.078.255,1.658.255,1.658s-1.548,1.291-1.154,1.976l.4.607-.1.1-.065.065a.6.6,0,0,0-.394-.074,14.765,14.765,0,0,1-1.558,1.387,16.877,16.877,0,0,1-2.6,1.234l-1.5.122h-.029s-.717-.067-.316,1.044,3.994.761,3.994.761l2.092-.331a40.262,40.262,0,0,0,4.814-.219c.449-.1.555-.339.527-.582h0l-.011-.011a1.5,1.5,0,0,0-.306-.63.3.3,0,0,0-.027-.032l.068-.761c1.588-.915-.449-2.716-.449-2.716a18.161,18.161,0,0,1,1.056-2.01c.359-.489.358-7.745.358-7.745s.19-2.621-.306-3.233a1.094,1.094,0,0,1,.534-.987c.354-.242,1.423-3.568,2.261-6.33l.529,3.254a4.614,4.614,0,0,0,.23,2.012.774.774,0,0,1,.141.6,2.691,2.691,0,0,0,.078,1.318.852.852,0,0,0,.276.468c.306.152.325.694.439.808s.822-.162.86.255a9.31,9.31,0,0,1,0,1.1l.23,6.758a4.421,4.421,0,0,0-.458,2.05,2.649,2.649,0,0,1-.276,1.21.618.618,0,0,0,.057.727l.067.076-.283.219a.618.618,0,0,0-.175.761.61.61,0,0,0-.177.656.76.76,0,0,0,.049.107,1.071,1.071,0,0,0-.571.281,4.679,4.679,0,0,1-1.008,1.016,19,19,0,0,0-1.609,1.377,2.309,2.309,0,0,1-.94.761,1.523,1.523,0,0,1-.283.084c-.761.154-.515.941.1,1.065a10.168,10.168,0,0,0,4.213.38,1.472,1.472,0,0,0,1.154-.16,15.9,15.9,0,0,1,2.25-.761s.86,0,.974-.342a1.31,1.31,0,0,0,.049-.333l.025-.023-.023-.021a4.486,4.486,0,0,0-.059-.761c-.021-.129-.046-.247-.068-.34-.074-.285-.209-.652-.268-.808a.29.29,0,0,0,.027-.04c.327-.553-.217-1.9-.217-1.9a3.632,3.632,0,0,1,.649-.761c.306-.226,1.109-6.149,1.109-6.149a5.332,5.332,0,0,1,.38-2.2c.418-.681-.571-4.821-.571-4.821s-.42-.951-.266-1.291a4.523,4.523,0,0,0-.154-1.594v-1.495a1.644,1.644,0,0,0-.088-.525,2.5,2.5,0,0,1-.1-1.522c.268-.683.879-4.9.879-4.9a5.644,5.644,0,0,1,.221-3.338,3.2,3.2,0,0,1,.19-.344c.517-.814.363-2.259.108-3.423-.04-.181-.082-.354-.124-.519-.019-.07-.038-.137-.055-.2l.082-.034a2.569,2.569,0,0,1,.025-.3,2.092,2.092,0,0,0,1.379-.951,15.383,15.383,0,0,1,3.3-2.79,2.858,2.858,0,0,0,1.662-2.022c-.23-.4.409-2.022.409-2.022ZM829.113,99.924Zm1.052,17.526-1.655,1.919a.04.04,0,0,1,0-.011c-.43-.6.4-1.936.4-1.936l1.367-3.064a1.852,1.852,0,0,1-.179.905c-.38.514.687,1.367.687,1.367-.573-.006-.63.82-.63.82Z" transform="translate(-656.714 -79.452)" fill="url(#linear-gradient-2)"/>
        <path id="Path_28849" data-name="Path 28849" d="M802.845,94.979l-.9,1.752a3.489,3.489,0,0,1-.841-.175,3.19,3.19,0,0,1-1.974-1.712,2.483,2.483,0,0,1,1.151-3.275c.622-.339,1.2-.728,1.664.38a19.283,19.283,0,0,1,.734,2.324C802.78,94.7,802.845,94.979,802.845,94.979Z" transform="translate(-658.537 -82.136)" fill="#cc818c"/>
        <path id="Path_28850" data-name="Path 28850" d="M940.331,135.072l-1.442,2.151s-6.82,3.252-5.516-.571a8.617,8.617,0,0,0,.538-3.768v-.023a2.974,2.974,0,0,0-.534-1.522s6.647-3.4,5.658-1.075a3.233,3.233,0,0,0-.236,1.531,5.215,5.215,0,0,0,.717,2.124A7.04,7.04,0,0,0,940.331,135.072Z" transform="translate(-767.32 -113.099)" fill="#cc818c"/>
        <path id="Path_28851" data-name="Path 28851" d="M895.072,297.169s.981,4.112.571,4.791a5.4,5.4,0,0,0-.38,2.187s-.793,5.886-1.1,6.113a3.614,3.614,0,0,0-.641.761s.538,1.331.215,1.883a.447.447,0,0,1-.215.19c-.506.213-2.374-.732-3.437-1.312a.586.586,0,0,1-.281-.337.6.6,0,0,1,.173-.65.62.62,0,0,1,.173-.761l.28-.217-.065-.076a.618.618,0,0,1-.057-.723,2.666,2.666,0,0,0,.272-1.2,4.385,4.385,0,0,1,.453-2.037l-.226-6.716a9.627,9.627,0,0,0,0-1.094c-.038-.415-.736-.141-.848-.255s-.133-.65-.434-.8a.844.844,0,0,1-.274-.464,2.7,2.7,0,0,1-.078-1.31.772.772,0,0,0-.139-.6,4.6,4.6,0,0,1-.226-2l-.521-3.233c-.829,2.744-1.885,6.05-2.233,6.29a1.088,1.088,0,0,0-.529.981c.491.6.3,3.207.3,3.207s0,7.2-.354,7.7a18.767,18.767,0,0,0-1.042,2s2.022,1.8.432,2.706l-.017.01c-1.622.905-4.979-1.62-4.979-1.62l.35-.35.1-.1-.38-.6c-.39-.679,1.141-1.961,1.141-1.961s-.407-1.584-.257-1.66a5.789,5.789,0,0,0,.257-1.51s-.371-5.206-.221-5.694a.761.761,0,0,0-.179-.65,1.624,1.624,0,0,1-.289-1.01,1.2,1.2,0,0,0-.247-.867c-.453-.491,0-2.6,0-2.6l.38-2.792V286.32a7.037,7.037,0,0,1,.456-2.5,7.531,7.531,0,0,0,.411-2.008A8.432,8.432,0,0,1,882.8,278.2c.274-.418.477-.669.477-.669l12.071-.474s.19.538.38,1.286c.042.164.084.335.122.515.253,1.16.405,2.6-.107,3.406a2.688,2.688,0,0,0-.19.34,5.635,5.635,0,0,0-.219,3.317s-.6,4.184-.867,4.867a2.442,2.442,0,0,0,.1,1.5,1.673,1.673,0,0,1,.086.521V294.3a4.565,4.565,0,0,1,.152,1.584C894.663,296.226,895.072,297.169,895.072,297.169Z" transform="translate(-724.126 -232.633)" fill="#444053"/>
        <path id="Path_28852" data-name="Path 28852" d="M957.327,290.5a3.116,3.116,0,0,0-.19.34l-.679-.038c.065-.35-.4-3.631-.4-3.631l1.369-.078C957.684,288.258,957.838,289.7,957.327,290.5Z" transform="translate(-785.826 -240.756)" opacity="0.1"/>
        <path id="Path_28853" data-name="Path 28853" d="M957.917,289.946a2.686,2.686,0,0,0-.19.34l-.681-.038c.067-.35-.4-3.633-.4-3.633l1.367-.076C958.276,287.7,958.428,289.136,957.917,289.946Z" transform="translate(-786.303 -240.31)" fill="#444053"/>
        <path id="Path_28854" data-name="Path 28854" d="M957.917,289.946a2.686,2.686,0,0,0-.19.34l-.681-.038c.067-.35-.4-3.633-.4-3.633l1.367-.076C958.276,287.7,958.428,289.136,957.917,289.946Z" transform="translate(-786.303 -240.31)" opacity="0.05"/>
        <path id="Path_28855" data-name="Path 28855" d="M936.053,459.227a.447.447,0,0,1-.215.19c-.506.213-2.374-.732-3.437-1.312a.586.586,0,0,1-.281-.337c.6-.11,1,.571,1,.571a.892.892,0,0,1,1.244.3c.519.761,1.632.441,1.632.441S936.021,459.134,936.053,459.227Z" transform="translate(-766.439 -378.963)" opacity="0.1"/>
        <path id="Path_28856" data-name="Path 28856" d="M916.034,462.011c-.114.339-.962.339-.962.339a18.069,18.069,0,0,0-2.2.774,1.5,1.5,0,0,1-1.141.16,10.178,10.178,0,0,1-4.16-.38c-.6-.118-.841-.905-.1-1.056a1.49,1.49,0,0,0,.28-.086,2.271,2.271,0,0,0,.928-.761,19.227,19.227,0,0,1,1.588-1.369,4.594,4.594,0,0,0,1-1.008c.886-.784,1.522.293,1.522.293a.892.892,0,0,1,1.244.3c.519.761,1.632.441,1.632.441s.19.51.293.877c.023.093.048.211.068.34A2.976,2.976,0,0,1,916.034,462.011Z" transform="translate(-746.106 -379.434)" fill="#ff748f"/>
        <circle id="Ellipse_53" data-name="Ellipse 53" cx="0.105" cy="0.105" r="0.105" transform="translate(167.229 79.983)" fill="#575988"/>
        <circle id="Ellipse_54" data-name="Ellipse 54" cx="0.105" cy="0.105" r="0.105" transform="translate(166.343 80.812)" fill="#575988"/>
        <circle id="Ellipse_55" data-name="Ellipse 55" cx="0.105" cy="0.105" r="0.105" transform="translate(165.441 81.558)" fill="#575988"/>
        <circle id="Ellipse_56" data-name="Ellipse 56" cx="0.105" cy="0.105" r="0.105" transform="translate(165.907 81.225)" fill="#575988"/>
        <circle id="Ellipse_57" data-name="Ellipse 57" cx="0.105" cy="0.105" r="0.105" transform="translate(166.805 80.371)" fill="#575988"/>
        <path id="Path_28857" data-name="Path 28857" d="M916.034,472.824c-.114.339-.962.339-.962.339a18.069,18.069,0,0,0-2.2.774,1.5,1.5,0,0,1-1.141.16,10.178,10.178,0,0,1-4.16-.38c-.6-.118-.841-.905-.1-1.056a1.49,1.49,0,0,0,.28-.086,7.229,7.229,0,0,0,2.041.38c1.537.065,2.754,0,2.754,0l1.556-.5a2.6,2.6,0,0,1,.962-.35,2.472,2.472,0,0,0,.951-.415A2.975,2.975,0,0,1,916.034,472.824Z" transform="translate(-746.106 -390.246)" fill="#dce6f2"/>
        <path id="Path_28858" data-name="Path 28858" d="M932.989,476.755a1.285,1.285,0,0,1-.259-.027l.023-.11a1.634,1.634,0,0,0,.932-.129,4.469,4.469,0,0,0,.413-.19,4.794,4.794,0,0,1,.491-.215l.154-.053c.086-.029.171-.057.253-.093.048-.019.093-.042.139-.063a1.548,1.548,0,0,1,.35-.133,1.627,1.627,0,0,1,.19-.025,1.621,1.621,0,0,0,.171-.021,1.486,1.486,0,0,0,.327-.122,1.587,1.587,0,0,1,.352-.129l.084-.015a.4.4,0,0,0,.243-.089l.082.078a.508.508,0,0,1-.308.124l-.078.013a1.487,1.487,0,0,0-.327.122,1.588,1.588,0,0,1-.352.129,1.252,1.252,0,0,1-.19.023,1.659,1.659,0,0,0-.177.023,1.439,1.439,0,0,0-.323.126l-.143.065c-.088.036-.175.067-.262.1l-.15.053c-.164.061-.325.137-.483.209s-.276.131-.418.19A2.013,2.013,0,0,1,932.989,476.755Z" transform="translate(-766.933 -393.202)" fill="#575988" opacity="0.5"/>
        <path id="Path_28859" data-name="Path 28859" d="M936,378.812a2.743,2.743,0,0,1,2.122-1.122,7.266,7.266,0,0,0,1.913-.15,4.749,4.749,0,0,1-1.451.571A24.523,24.523,0,0,0,936,378.812Z" transform="translate(-769.581 -314.003)" opacity="0.1"/>
        <path id="Path_28860" data-name="Path 28860" d="M938.38,383.207a3.153,3.153,0,0,1,1.113-.51c.405-.019.761-.057.761-.057a2.149,2.149,0,0,1-.622.3C939.285,383.038,938.38,383.207,938.38,383.207Z" transform="translate(-771.508 -318.133)" opacity="0.1"/>
        <path id="Path_28861" data-name="Path 28861" d="M939.17,387.4s1.067.086,1.076.369" transform="translate(-772.148 -321.988)" opacity="0.1"/>
        <path id="Path_28862" data-name="Path 28862" d="M887,295.285a4.251,4.251,0,0,0,1.073-1.387.97.97,0,0,1,.415-.609s.614.245.067,1A3.046,3.046,0,0,1,887,295.285Z" transform="translate(-729.9 -245.777)" opacity="0.1"/>
        <path id="Path_28863" data-name="Path 28863" d="M939.728,130.211c-.217.514-.409.552-.367,1.05a3.781,3.781,0,0,1-.863.679c-.675.4-1.409,1.185-2.25,1.185a4.46,4.46,0,0,1-1.643-.31,2.974,2.974,0,0,0-.534-1.522S940.713,127.885,939.728,130.211Z" transform="translate(-768.018 -113.056)" opacity="0.1"/>
        <path id="Path_28864" data-name="Path 28864" d="M930.866,105a4.5,4.5,0,1,1-4.5-4.5A4.5,4.5,0,0,1,930.866,105Z" transform="translate(-758.138 -89.654)" fill="#cc818c"/>
        <path id="Path_28865" data-name="Path 28865" d="M940.331,149.687l-1.442,2.151s-6.82,3.252-5.516-.571a8.617,8.617,0,0,0,.538-3.768h.011a3.567,3.567,0,0,1,.135.867c.021.586.036,1.331,1.493,1.575a4.069,4.069,0,0,0,3.962-1.409A7.032,7.032,0,0,0,940.331,149.687Z" transform="translate(-767.32 -127.715)" opacity="0.1"/>
        <path id="Path_28866" data-name="Path 28866" d="M811.99,107.915l-.9,1.752a3.489,3.489,0,0,1-.841-.175l-.078-.093c.369.141,1.613-2.208,1.613-2.208l.04.032C811.925,107.631,811.99,107.915,811.99,107.915Z" transform="translate(-667.683 -95.071)" opacity="0.1"/>
        <path id="Path_28867" data-name="Path 28867" d="M907.928,278.372c-2.912,1.265-12.988.19-12.988.19a1.271,1.271,0,0,0,.051-.329c.274-.418.477-.669.477-.669l12.071-.474S907.736,277.624,907.928,278.372Z" transform="translate(-736.33 -232.658)" opacity="0.1"/>
        <path id="Path_28868" data-name="Path 28868" d="M834.835,115.447l-1.343.571a1.073,1.073,0,0,1-.962-.624c-.31-.65-1.413,0-1.413,0s-3.368-.255-4.612.369c0,0-2.008-.85-2.282-.905s-.708-.283-.905-.226-.453-.369-.593-.34-.2-.283-.652-.4-.622.029-1.132-.481A44.947,44.947,0,0,0,816.3,110.9l-1.868-1.522-1.98-1.584s-1.246,2.347-1.613,2.206l3.762,4.527a22.517,22.517,0,0,0,4.584,3.14c1.868.763,1.725.991,1.725.991s5.66,2.885,6.537,2.83.707,5.913.339,6.875-.96,7.921-.96,7.921a3.32,3.32,0,0,0,.027,2.49,14,14,0,0,1,0,2.461s10.139,1.084,13.015-.19c0,0,.424-4.7,0-5.291s.4-1.923.4-1.923l1.8-4.055,4.409-4.445a6.652,6.652,0,0,0-2.347-6.086l-2.01-1.782a7.453,7.453,0,0,0-1.451-1.033c-.327-.061-.207,0-.207,0a4.069,4.069,0,0,1-3.994,1.457c-1.457-.245-1.472-.987-1.493-1.575A3.571,3.571,0,0,0,834.835,115.447Z" transform="translate(-668.225 -95.557)" fill="#67647e"/>
        <path id="Path_28869" data-name="Path 28869" d="M934.249,228.13s-6.225.255-7.469,2.208a6.18,6.18,0,0,1,3.055-.538C931.276,230.022,934.249,228.13,934.249,228.13Z" transform="translate(-762.115 -193.01)" opacity="0.1"/>
        <path id="Path_28870" data-name="Path 28870" d="M929.9,257.983s2.942.19,3.566-.424.624-.989.624-.989Z" transform="translate(-764.641 -216.04)" opacity="0.1"/>
        <path id="Path_28871" data-name="Path 28871" d="M965.071,196.6s-2.49,2.942.538,4.215Z" transform="translate(-792.343 -167.476)" opacity="0.1"/>
        <path id="Path_28872" data-name="Path 28872" d="M891.67,166.7s.905,1.847,1.358,1.97Z" transform="translate(-733.682 -143.263)" opacity="0.1"/>
        <path id="Path_28873" data-name="Path 28873" d="M875.61,162.53a33.893,33.893,0,0,0,2.687,2.235A18.794,18.794,0,0,0,875.61,162.53Z" transform="translate(-720.677 -139.886)" opacity="0.1"/>
        <path id="Path_28874" data-name="Path 28874" d="M917.778,152.27s-2.18,3.252-.761,5.234A6.953,6.953,0,0,1,917.778,152.27Z" transform="translate(-753.82 -131.577)" opacity="0.1"/>
        <path id="Path_28875" data-name="Path 28875" d="M921.892,274.131l-.666.626-.093.087-.77.728c-.057.042-.11.084-.165.122-3.138,2.25-3.768-1.168-3.768-1.168s-1.387.905-1.584.169,3.233-1.782,3.733-1.725a.662.662,0,0,0,.137,0,2.15,2.15,0,0,0,.7-.249c.051-.027.1-.053.152-.082a5.643,5.643,0,0,0,.508-.32Z" transform="translate(-752.443 -228.795)" fill="#cc818c"/>
        <path id="Path_28876" data-name="Path 28876" d="M936.924,105a4.5,4.5,0,0,1-2.2,3.867,2.621,2.621,0,0,1-.163-.328c-.162-.38-.261-.778-.422-1.154a3.6,3.6,0,0,0-.761-1.1.482.482,0,0,0-.19-.139.546.546,0,0,0-.413.114,1.868,1.868,0,0,1-.628.276.668.668,0,0,1-.63-.19.944.944,0,0,1-.1-.785,9.752,9.752,0,0,0,.293-1.755,1.732,1.732,0,0,0-.742-1.533,6.607,6.607,0,0,0-1.531-.333,1.648,1.648,0,0,1-.23-.08A4.5,4.5,0,0,1,936.93,105Z" transform="translate(-764.082 -89.651)" opacity="0.1"/>
        <path id="Path_28877" data-name="Path 28877" d="M926.939,93.681c-.082.044-.171.122-.146.213a.209.209,0,0,0,.082.1,1.947,1.947,0,0,0,.711.365,6.252,6.252,0,0,1,1.533.333,1.729,1.729,0,0,1,.742,1.531,10.26,10.26,0,0,1-.295,1.755.951.951,0,0,0,.1.787.671.671,0,0,0,.63.19,1.855,1.855,0,0,0,.626-.274.542.542,0,0,1,.413-.114.5.5,0,0,1,.2.137,3.571,3.571,0,0,1,.761,1.1c.164.38.263.776.422,1.154a1.862,1.862,0,0,0,.761.94.951.951,0,0,0,1.141-.12c.262-.289.255-.727.38-1.1.224-.641.852-1.044,1.244-1.6a4.911,4.911,0,0,0,.683-2.161,1.815,1.815,0,0,0,.011-.723,2.62,2.62,0,0,0-.2-.456c-.437-.905-.428-2.045-1.126-2.769a3.365,3.365,0,0,0-2.069-.8,5.319,5.319,0,0,1-2.178-.542,2.4,2.4,0,0,0-.59-.327.485.485,0,0,0-.58.217.381.381,0,0,1-.078.158.247.247,0,0,1-.221.013l-1-.268.114.5a2.487,2.487,0,0,1-1.057-.19c-.019.283.3.468.4.732a.677.677,0,0,1-.19.69C927.8,93.529,927.346,93.459,926.939,93.681Z" transform="translate(-762.121 -82.194)" fill="#585268"/>
        <path id="Path_28878" data-name="Path 28878" d="M884.906,452.878l-.04.453-.017.01c-1.622.905-4.979-1.62-4.979-1.62l.35-.35a.609.609,0,0,1,.152.472l.687.038.82.886a15.419,15.419,0,0,0,2.82.112Z" transform="translate(-724.126 -373.791)" opacity="0.1"/>
        <path id="Path_28879" data-name="Path 28879" d="M858.488,455.293a39.579,39.579,0,0,1-4.755.217l-2.065.329s-3.555.34-3.95-.761.31-1.037.31-1.037h.027l1.48-.12a16.657,16.657,0,0,0,2.566-1.227,14.805,14.805,0,0,0,1.537-1.377s.618-.12.607.6l.687.038.82.884a15.384,15.384,0,0,0,2.82.114h.207l-.1,1.094.027.034C858.84,454.247,859.431,455.082,858.488,455.293Z" transform="translate(-697.991 -373.743)" fill="#ff748f"/>
        <circle id="Ellipse_58" data-name="Ellipse 58" cx="0.105" cy="0.105" r="0.105" transform="translate(156.561 78.697)" fill="#575988"/>
        <circle id="Ellipse_59" data-name="Ellipse 59" cx="0.105" cy="0.105" r="0.105" transform="translate(153.903 79.852)" fill="#575988"/>
        <circle id="Ellipse_60" data-name="Ellipse 60" cx="0.105" cy="0.105" r="0.105" transform="translate(152.533 80.268)" fill="#575988"/>
        <circle id="Ellipse_61" data-name="Ellipse 61" cx="0.105" cy="0.105" r="0.105" transform="translate(154.601 79.631)" fill="#575988"/>
        <circle id="Ellipse_62" data-name="Ellipse 62" cx="0.105" cy="0.105" r="0.105" transform="translate(153.216 80.061)" fill="#575988"/>
        <circle id="Ellipse_63" data-name="Ellipse 63" cx="0.105" cy="0.105" r="0.105" transform="translate(155.306 79.304)" fill="#575988"/>
        <circle id="Ellipse_64" data-name="Ellipse 64" cx="0.105" cy="0.105" r="0.105" transform="translate(156.004 79.002)" fill="#575988"/>
        <path id="Path_28880" data-name="Path 28880" d="M858.488,466.918a39.575,39.575,0,0,1-4.755.217l-2.065.329s-3.555.34-3.95-.761.31-1.037.31-1.037h.027a1.9,1.9,0,0,0,1.575.643l2.556.1,2.649-.19s2.472-.076,2.885-.16a5.992,5.992,0,0,0,.989-.363C858.84,465.872,859.431,466.707,858.488,466.918Z" transform="translate(-697.991 -385.368)" fill="#dce6f2"/>
        <path id="Path_28881" data-name="Path 28881" d="M868.218,469.729a1.669,1.669,0,0,1-.418-.051l.038-.1a2.052,2.052,0,0,0,1.054-.048c.126-.032.249-.068.38-.107a4.314,4.314,0,0,1,1.835-.207h.082a17.373,17.373,0,0,0,3.395-.152,1.263,1.263,0,0,0,.727-.291l.082.08a1.377,1.377,0,0,1-.789.323,17.633,17.633,0,0,1-3.423.152h-.08a5.554,5.554,0,0,0-1.124.032,5.839,5.839,0,0,0-.675.169c-.126.038-.251.076-.38.108A2.825,2.825,0,0,1,868.218,469.729Z" transform="translate(-714.352 -387.882)" fill="#575988" opacity="0.5"/>
        <path id="Path_28882" data-name="Path 28882" d="M942.05,274.131l-.666.626-1.655-2.117a5.634,5.634,0,0,0,.508-.32Z" transform="translate(-772.602 -228.795)" opacity="0.1"/>
        <path id="Path_28883" data-name="Path 28883" d="M949.06,190.5l1.3,1.811v1.9a7.921,7.921,0,0,1,0,4.019l.067,1.754s-.631,1.613-.405,2.008a2.847,2.847,0,0,1-1.641,2.01,15.4,15.4,0,0,0-3.254,2.758,2.215,2.215,0,0,1-2.4.962l-1.67.708-1.923-2.461,2.6-1.415s.905-1.217,1.444-1.16l2.206-2.569s.057-.82.622-.82c0,0-1.046-.848-.679-1.358s.057-2.773.057-2.773Z" transform="translate(-772.116 -162.536)" fill="#67647e"/>
        <path id="Path_28884" data-name="Path 28884" d="M978.55,233.663s2.971-.055,3.338.708S979.455,233.239,978.55,233.663Z" transform="translate(-804.038 -197.439)" opacity="0.1"/>
        <path id="Path_28885" data-name="Path 28885" d="M937.651,276.4a.784.784,0,0,1-.011.148,1,1,0,0,1-.936.85h-.053a1,1,0,0,1-1-1,1.024,1.024,0,0,1,.055-.325,1.722,1.722,0,0,1-.485-1.4,2.152,2.152,0,0,0,.7-.249,4.68,4.68,0,0,0,.493,1.006.952.952,0,0,1,.232-.029,1,1,0,0,1,1,1Z" transform="translate(-768.949 -230.496)" opacity="0.1"/>
        <path id="Path_28886" data-name="Path 28886" d="M936.5,273.26s-.669.15-.669.272-.15,1.227.584,1.679.662-.631.662-.631S936.438,273.608,936.5,273.26Z" transform="translate(-769.43 -229.556)" fill="#575988"/>
        <circle id="Ellipse_65" data-name="Ellipse 65" cx="1" cy="1" r="1" transform="translate(166.815 44.9)" fill="#e4aab4"/>
        <circle id="Ellipse_66" data-name="Ellipse 66" cx="0.858" cy="0.858" r="0.858" transform="translate(166.957 45.043)" fill="#dce6f2"/>
        <path id="Path_28887" data-name="Path 28887" d="M922.793,286.84a4.954,4.954,0,0,0,4.829.643v.848a3.931,3.931,0,0,1-3.452.491C922.529,288.069,922.793,286.84,922.793,286.84Z" transform="translate(-758.873 -240.553)" opacity="0.1"/>
        <path id="Path_28888" data-name="Path 28888" d="M922.793,285.65a4.95,4.95,0,0,0,4.829.637v.848a3.931,3.931,0,0,1-3.452.491C922.529,286.873,922.793,285.65,922.793,285.65Z" transform="translate(-758.873 -239.59)" opacity="0.1"/>
        <path id="Path_28889" data-name="Path 28889" d="M922.793,285.65a4.95,4.95,0,0,0,4.829.637v.848a3.931,3.931,0,0,1-3.452.491C922.529,286.873,922.793,285.65,922.793,285.65Z" transform="translate(-758.873 -239.59)" fill="#444053"/>
        <path id="Path_28890" data-name="Path 28890" d="M923.1,285.65a4.954,4.954,0,0,0,4.829.643v.848a3.957,3.957,0,0,1-3.452.491C922.838,286.884,923.1,285.65,923.1,285.65Z" transform="translate(-759.119 -239.59)" opacity="0.05"/>
        <path id="Path_28891" data-name="Path 28891" d="M888,451.32s2.83.519,3.245.631-.114.312-.114.312A11.464,11.464,0,0,1,888,451.32Z" transform="translate(-730.71 -373.751)" opacity="0.1"/>
        <path id="Path_28892" data-name="Path 28892" d="M887.61,437.334c.046,0,1.923-.529,2.328-1.434" transform="translate(-730.394 -361.263)" opacity="0.1"/>
        <path id="Path_28893" data-name="Path 28893" d="M902,386.505s.761,1,1.251.972S902.447,386.467,902,386.505Z" transform="translate(-742.047 -321.262)" opacity="0.1"/>
        <path id="Path_28894" data-name="Path 28894" d="M904.22,395.24s.32.708.791.481" transform="translate(-743.845 -328.337)" opacity="0.1"/>
        <path id="Path_28895" data-name="Path 28895" d="M913.59,313.537l2.007,5.291s.283-3.4-.316-4.424A1.767,1.767,0,0,0,913.59,313.537Z" transform="translate(-751.433 -262.166)" opacity="0.05"/>
        <g id="Group_8090" data-name="Group 8090" transform="translate(164.647 9.283)" opacity="0.1">
          <path id="Path_28896" data-name="Path 28896" d="M938.11,92.442l-.017-.076-.323-.086.036.158A2.316,2.316,0,0,0,938.11,92.442Z" transform="translate(-935.661 -92.28)"/>
          <path id="Path_28897" data-name="Path 28897" d="M933.188,95.083l.034-.03a.675.675,0,0,0,.19-.688.934.934,0,0,0-.16-.257,2.472,2.472,0,0,1-.466-.137c-.019.283.3.466.4.732a.57.57,0,0,1,0,.38Z" transform="translate(-931.625 -93.649)"/>
          <path id="Path_28898" data-name="Path 28898" d="M933.588,111.773a1.87,1.87,0,0,1-.761-.94c-.162-.38-.259-.78-.422-1.154a3.547,3.547,0,0,0-.761-1.1.481.481,0,0,0-.2-.139.54.54,0,0,0-.413.114,1.9,1.9,0,0,1-.628.276.679.679,0,0,1-.63-.19.944.944,0,0,1-.1-.785,9.772,9.772,0,0,0,.295-1.757,1.7,1.7,0,0,0-.744-1.522,6.536,6.536,0,0,0-1.521-.333,1.932,1.932,0,0,1-.711-.365l-.04-.036a1.213,1.213,0,0,0-.124.059c-.082.044-.169.122-.146.211a.226.226,0,0,0,.084.106,1.959,1.959,0,0,0,.711.363,6.327,6.327,0,0,1,1.531.335,1.722,1.722,0,0,1,.744,1.522,10.225,10.225,0,0,1-.295,1.755.946.946,0,0,0,.1.785.669.669,0,0,0,.63.19,1.9,1.9,0,0,0,.628-.274.55.55,0,0,1,.413-.116.5.5,0,0,1,.19.139,3.591,3.591,0,0,1,.761,1.1c.164.38.261.778.422,1.154a1.866,1.866,0,0,0,.761.951A.963.963,0,0,0,934.5,112a.9.9,0,0,0,.169-.283.97.97,0,0,1-1.084.053Z" transform="translate(-926.681 -101.641)"/>
          <path id="Path_28899" data-name="Path 28899" d="M971.54,132.59c.283-.358.654-.662.921-1.038a2.655,2.655,0,0,0,.146-.232A9.419,9.419,0,0,0,971.54,132.59Z" transform="translate(-963.008 -123.895)"/>
        </g>
        <g id="Group_8092" data-name="Group 8092" transform="translate(109.042 12.634)" opacity="0.1">
          <path id="Path_28900" data-name="Path 28900" d="M681.672,109.9h-45a2.358,2.358,0,0,0-2.353,2.351v28.432a2.358,2.358,0,0,0,2.353,2.351h35.3s.915,4.856-2.092,5.377c0,0,6.729.483,5.554-5.377h6.236a2.356,2.356,0,0,0,2.351-2.351V112.251A2.356,2.356,0,0,0,681.672,109.9Z" transform="translate(-634.32 -109.9)"/>
          <g id="Group_8091" data-name="Group 8091" transform="translate(6.624 7.547)" opacity="0.2">
            <rect id="Rectangle_2895" data-name="Rectangle 2895" width="36.452" height="2.221" rx="1.111"/>
            <rect id="Rectangle_2896" data-name="Rectangle 2896" width="30.079" height="2.221" rx="1.111" transform="translate(0 9.928)"/>
            <rect id="Rectangle_2897" data-name="Rectangle 2897" width="21.653" height="2.221" rx="1.111" transform="translate(0 4.964)"/>
          </g>
        </g>
        <path id="Path_28901" data-name="Path 28901" d="M684.762,107.83h-45a2.36,2.36,0,0,0-2.353,2.353v28.432a2.358,2.358,0,0,0,2.353,2.351h35.3s.915,4.856-2.092,5.377c0,0,6.729.483,5.554-5.377h6.236a2.357,2.357,0,0,0,2.351-2.351V110.183a2.358,2.358,0,0,0-2.349-2.353Z" transform="translate(-527.78 -95.59)" fill="#fff" stroke="#707070" stroke-width="1"/>
        <g id="Group_8093" data-name="Group 8093" transform="translate(116.254 19.787)" opacity="0.2">
          <rect id="Rectangle_2898" data-name="Rectangle 2898" width="36.452" height="2.221" rx="1.111" fill="#1ed7b5"/>
          <rect id="Rectangle_2899" data-name="Rectangle 2899" width="30.079" height="2.221" rx="1.111" transform="translate(0 9.93)" fill="#1ed7b5"/>
          <rect id="Rectangle_2900" data-name="Rectangle 2900" width="21.653" height="2.221" rx="1.111" transform="translate(0 4.966)" fill="#1ed7b5"/>
        </g>
        <path id="Path_28902" data-name="Path 28902" d="M134.243,596.48s.677.886-.314,2.225-1.809,2.472-1.478,3.3c0,0,1.495-2.486,2.712-2.52S135.582,597.975,134.243,596.48Z" transform="translate(-118.801 -491.302)" fill="#1ed7b5"/>
        <path id="Path_28903" data-name="Path 28903" d="M134.408,596.48a1.118,1.118,0,0,1,.137.278c1.189,1.4,1.82,2.7.679,2.731-1.063.03-2.337,1.93-2.644,2.412a.347.347,0,0,0,.036.108s1.495-2.486,2.712-2.52S135.747,597.975,134.408,596.48Z" transform="translate(-118.965 -491.302)" opacity="0.1"/>
        <path id="Path_28904" data-name="Path 28904" d="M148.146,601.56c0,.312-.034.571-.078.571s-.078-.253-.078-.571.044-.165.087-.165S148.146,601.248,148.146,601.56Z" transform="translate(-131.444 -495.253)" fill="#ffd037"/>
        <path id="Path_28905" data-name="Path 28905" d="M148.808,603.474c-.274.15-.514.24-.534.2s.19-.19.458-.339.167-.04.19,0S149.082,603.326,148.808,603.474Z" transform="translate(-131.673 -496.794)" fill="#ffd037"/>
        <path id="Path_28906" data-name="Path 28906" d="M116.873,596.48s-.677.886.314,2.225,1.809,2.472,1.478,3.3c0,0-1.495-2.486-2.712-2.52S115.534,597.975,116.873,596.48Z" transform="translate(-105.014 -491.302)" fill="#1ed7b5"/>
        <path id="Path_28907" data-name="Path 28907" d="M116.873,596.48a1.117,1.117,0,0,0-.137.278c-1.189,1.4-1.82,2.7-.679,2.731,1.063.03,2.337,1.93,2.644,2.412-.01.036-.023.072-.036.108,0,0-1.495-2.486-2.712-2.52S115.534,597.975,116.873,596.48Z" transform="translate(-105.014 -491.302)" opacity="0.1"/>
        <path id="Path_28908" data-name="Path 28908" d="M116.73,601.56c0,.312.034.571.078.571s.078-.253.078-.571-.044-.165-.087-.165S116.73,601.248,116.73,601.56Z" transform="translate(-106.129 -495.253)" fill="#ffd037"/>
        <path id="Path_28909" data-name="Path 28909" d="M113.729,603.474c.274.15.514.24.534.2s-.19-.19-.458-.339-.167-.04-.19,0S113.454,603.326,113.729,603.474Z" transform="translate(-103.563 -496.794)" fill="#ffd037"/>
        <ellipse id="Ellipse_67" data-name="Ellipse 67" cx="7.09" cy="1.088" rx="7.09" ry="1.088" transform="translate(6.561 115.315)" fill="#1ed7b5" opacity="0.1"/>
        <path id="Path_28910" data-name="Path 28910" d="M120.881,617.513l-.034.276-.048.392-.021.164-.048.39-.019.164-.048.392-.544,4.449c-.048.4-.7.708-1.48.708h-2.826c-.784,0-1.43-.31-1.48-.708l-.544-4.447-.048-.392-.019-.164-.048-.39-.021-.164-.048-.392-.034-.276c-.027-.224.325-.415.761-.415H120.1C120.548,617.1,120.9,617.288,120.881,617.513Z" transform="translate(-103.572 -508.001)" fill="#65617d"/>
        <path id="Path_28911" data-name="Path 28911" d="M59.929,577.23l-.048.392H52.748l-.048-.392Z" transform="translate(-42.664 -467.442)" fill="#9d9cb5"/>
        <path id="Path_28912" data-name="Path 28912" d="M60.146,580.15l-.048.39h-7l-.049-.39Z" transform="translate(-42.948 -469.807)" fill="#9d9cb5"/>
        <path id="Path_28913" data-name="Path 28913" d="M60.369,583.06l-.048.392H53.458l-.048-.392Z" transform="translate(-43.239 -472.163)" fill="#9d9cb5"/>
        <ellipse id="Ellipse_68" data-name="Ellipse 68" cx="15.984" cy="2.623" rx="15.984" ry="2.623" transform="translate(106.853 147.509)" fill="#1ed7b5" opacity="0.1"/>
        <g id="Group_8095" data-name="Group 8095" transform="translate(90.038 69.589)" opacity="0.1">
          <path id="Path_28914" data-name="Path 28914" d="M585.712,409.36H536.949a2.556,2.556,0,0,0-2.549,2.549V442.72a2.556,2.556,0,0,0,2.549,2.549H575.2s.991,5.261-2.265,5.826c0,0,7.29.523,6.016-5.826h6.759a2.556,2.556,0,0,0,2.549-2.549V411.909A2.556,2.556,0,0,0,585.712,409.36Z" transform="translate(-534.4 -409.36)"/>
          <g id="Group_8094" data-name="Group 8094" transform="translate(7.178 13.559)" opacity="0.2">
            <rect id="Rectangle_2901" data-name="Rectangle 2901" width="39.503" height="2.408" rx="1.204" transform="translate(0 5.381)"/>
            <rect id="Rectangle_2902" data-name="Rectangle 2902" width="17.129" height="2.408" rx="1.204"/>
          </g>
        </g>
        <path id="Path_28915" data-name="Path 28915" d="M583.481,407.13H534.708a2.556,2.556,0,0,0-2.549,2.549V440.49a2.556,2.556,0,0,0,2.549,2.549h38.253s.991,5.261-2.265,5.827c0,0,7.292.523,6.018-5.827h6.767a2.556,2.556,0,0,0,2.549-2.549V409.679a2.556,2.556,0,0,0-2.549-2.549Z" transform="translate(-442.548 -337.965)" fill="#fff" stroke="#707070" stroke-width="1"/>
        <g id="Group_8096" data-name="Group 8096" transform="translate(96.792 82.724)" opacity="0.2">
          <rect id="Rectangle_2903" data-name="Rectangle 2903" width="39.503" height="2.408" rx="1.204" transform="translate(0 5.381)" fill="#1ed7b5"/>
          <rect id="Rectangle_2904" data-name="Rectangle 2904" width="17.129" height="2.408" rx="1.204" fill="#1ed7b5"/>
        </g>
        <path id="Path_28916" data-name="Path 28916" d="M583.4,466.046c-.23-.976-.38-1.833-.38-1.833a3.779,3.779,0,0,0-.424-1.862v-.266h0V460.12a6.6,6.6,0,0,1,.5-1.029c.354-.618,0-2.881,0-2.881s-1.312-3.191-.993-5.215-2.7-8.99-2.7-8.99a8.84,8.84,0,0,1,.283-1.989,1.539,1.539,0,0,0,.038-.417.45.45,0,0,0,0-.051v.017a15.539,15.539,0,0,0-1.1-3.838l.143-4.768a14.022,14.022,0,0,0-.426-6.588c-.38-1.316-.63-2.372-.786-3.184-.017-.093-.034-.19-.049-.266,2.263-.344,3.994-.631,3.994-.631s-1.309-5.491-2.195-6.442-1.594-3.994-1.594-3.994-.462-3.878.283-5.01a7.518,7.518,0,0,0,.85-3.087s1.712-1.236,1.915-1.784a9.441,9.441,0,0,0,.571-2.436c0-.652-.213-1.236-.143-1.579s-.5-1.647-.213-2.265a1.665,1.665,0,0,0,.114-.6v-.017h0a8.412,8.412,0,0,0-.15-1.609,4.564,4.564,0,0,0-1.683-.9l-.038-.148-.1-.38c-.057-.038-.112-.07-.167-.1V389.8l-.017-.557.268-1.251c.523-2.18-2.385-2.5-2.385-2.5a1.521,1.521,0,0,0-.823-.721c-.586-.205-.1,3.277.177,3.5a12.634,12.634,0,0,1,1.141,1.8h0l.049.089a1.066,1.066,0,0,0-.133.139l.11.761.017.116a3.168,3.168,0,0,0-.464.791,1.69,1.69,0,0,1,.426,1.236,3.759,3.759,0,0,0,.175,1.508c-.03-.036-.405-.441-.778-.342s-1.419.413-1.419.413-.78.137-.708.308-.533.926-.533.926l-2.092-1.986c-.019-.059-.042-.118-.061-.181a4.985,4.985,0,0,1-.19-.869,4.978,4.978,0,0,0,.669-.213,1.449,1.449,0,0,0,.571-.371,2.258,2.258,0,0,0,.337-.9,13.065,13.065,0,0,1,.778-1.735,5.63,5.63,0,0,0,.418-3.113,2.056,2.056,0,0,0-.321-.911c-.342-.472-.962-.662-1.415-1.038s-.742-.951-1.267-1.231a2.522,2.522,0,0,0-1.592-.137,8.576,8.576,0,0,0-2.969,1.08,1.529,1.529,0,0,1-.993.327,1.338,1.338,0,0,1-.717-.527.035.035,0,0,1,.01-.029l-.023-.027a3.683,3.683,0,0,0-.31,1.554,2.227,2.227,0,0,0,.009.251v.16h0a.377.377,0,0,1-.015.112.817.817,0,0,1-.19.283,1.493,1.493,0,0,0-.171.232.767.767,0,0,1,.029-.086,1.246,1.246,0,0,0-.217.662.654.654,0,0,0,.156.472,2.28,2.28,0,0,0,.342.276,3.994,3.994,0,0,0,1.9,4.154c.025.059.049.12.072.181a5,5,0,0,1,.38,2.282.83.83,0,0,1-.027.167c-.011.055-.051.057-.074.087h0s-3.46.034-4.276-.7-2.056,1.8-2.056,1.8-1.24.24-1.487,0-1.7-.034-1.7-.034a3.129,3.129,0,0,0-2.153-.787,6.4,6.4,0,0,0-1.586-.882h0l-.038-.013h0a1.784,1.784,0,0,0-.78-.1,16,16,0,0,1-2.2-2.161c-.5-.753-2.853-3.555-2.87-3.568v-.135l-.027-.409a1.356,1.356,0,0,1-.211.019c-.013-.04-.029-.087-.048-.141a7.9,7.9,0,0,0-.5-1.154s0-.514.15-.643a8.8,8.8,0,0,0-.063-2.016s-1.533-3.585-2.906-.909c0,0-2.6,1.733-.417,3.749,0,0,.869.42.991.761.082.217.38.822.571,1.223l.089.181-.025.021.032.337.013.129c-.411.234-.688.464-.622.639a3.866,3.866,0,0,1,.249.926s3,3.766,3.391,5.382c0,0,8.081,4.8,10.74,5.145l-.46,2.4a19.193,19.193,0,0,0-.107,1.955c.034.515-.32,2.853-.32,2.853s-.46,3.423-.85,3.91a6.535,6.535,0,0,0-.31,2.535,17.332,17.332,0,0,1-.533,2.916,7.643,7.643,0,0,0-.107,2.918s-1.347,3.087,1.879.995c0,0,1.584-.1,3.408-.162v.19c0,.234,0,.489-.011.761-.025,1.769-.034,4.205.046,6.05.143,3.258,1.141,9.709,1.141,9.709v3.233a4.455,4.455,0,0,0-.093.926,6.038,6.038,0,0,0,.873,3.245l.249,2.161a8.46,8.46,0,0,1,.593,2.282,1.322,1.322,0,0,1-.025.207,1.476,1.476,0,0,0-.029.331,18.669,18.669,0,0,0,.559,3.328s.034,2.368.38,2.5c.3.118-.405,1.366-.616,1.723a.127.127,0,0,0-.013-.068l-.044.072a1.659,1.659,0,0,0-.11.6.862.862,0,0,0,.394.833c.673.411,1.035.761.462.892a6.138,6.138,0,0,0-.624.131l-.03-.08a.38.38,0,0,0-.232.415,1.727,1.727,0,0,0,.211.8,9.152,9.152,0,0,0,.951,1.75l.274-.03a1.462,1.462,0,0,1-.158.293,1.13,1.13,0,0,1-.4.356,1.21,1.21,0,0,1-.485.165,1.371,1.371,0,0,0-1,.489,1.047,1.047,0,0,0,.124,1.628l2.535.875s4.359.571,4.129-.413-.38-1.835-.38-1.835a3.866,3.866,0,0,0-.354-1.735,2.339,2.339,0,0,0-.154-.255l.154-.017a8.041,8.041,0,0,1,.744-2.573c.1-.1.122-.167.1-.224.044-.118-.067-.19-.209-.226l-.03.086a2.076,2.076,0,0,0-.424-.048s-.141-1.132.32-1.542a.437.437,0,0,0,.089-.337,1.89,1.89,0,0,0-.048-.462l-.017.027a16.748,16.748,0,0,0-1.018-2.663,3.243,3.243,0,0,1,.249-1.442c.285-.413-.036-5.592-.036-5.592a16.933,16.933,0,0,0-.213-3.671,4.113,4.113,0,0,1,.39-2.539v-.076l.009-.017s-.017-.154-.042-.394v.023c-.072-.662-.207-1.864-.306-2.419-.143-.789.034-4.565.034-4.565l.639-1.613,1.141,2.781,1.206,3.7a3.152,3.152,0,0,1,.61,1.575.767.767,0,0,1,0,.116,2.251,2.251,0,0,0-.013.249,2.2,2.2,0,0,0,.367,1.318,5.761,5.761,0,0,0,.816,2.2,1.978,1.978,0,0,1,.5,1.3,21.8,21.8,0,0,0,.886,2.986,4.475,4.475,0,0,1,.249,1.725h0v.093s.084.907.08,1.67v.272a.08.08,0,0,1,0-.021,2.785,2.785,0,0,1-.074.618.064.064,0,0,1-.011.036l.011-.129a6.537,6.537,0,0,0-.19,1.582,4.052,4.052,0,0,0,.675,2.627c.951,1.1,1.56.962,1.56.962s-.46,1.371-1.029,1.645a.324.324,0,0,0-.059.04.593.593,0,0,0-.015-.08.665.665,0,0,0-.165.512,3.645,3.645,0,0,0,.7,2.033,1.107,1.107,0,0,0,.479.28l-.089.055a1.958,1.958,0,0,1-.19.093.919.919,0,0,1-.289.074,1.358,1.358,0,0,0-1,.489,1.045,1.045,0,0,0,.124,1.626l2.535.875S583.63,467.026,583.4,466.046Z" transform="translate(-451.365 -317.699)" fill="url(#linear-gradient-3)"/>
        <path id="Path_28917" data-name="Path 28917" d="M655.32,811.5l-2.453-.875a1.067,1.067,0,0,1-.12-1.628,1.312,1.312,0,0,1,.972-.489,1.142,1.142,0,0,0,.47-.165,1.1,1.1,0,0,0,.38-.356,1.794,1.794,0,0,0,.28-.951s2.7-.789,3.423,0a2.027,2.027,0,0,1,.327.477,3.994,3.994,0,0,1,.342,1.735s.139.858.359,1.835S655.32,811.5,655.32,811.5Z" transform="translate(-539.939 -661.529)" fill="#2d293d"/>
        <path id="Path_28918" data-name="Path 28918" d="M718.457,805.146,716,804.271a1.064,1.064,0,0,1-.12-1.626,1.3,1.3,0,0,1,.972-.489.862.862,0,0,0,.28-.074,1.44,1.44,0,0,0,.19-.093,1.558,1.558,0,0,0,.668-1.3s2.693-.789,3.423,0a1.836,1.836,0,0,1,.257.35,3.88,3.88,0,0,1,.413,1.864s.137.858.359,1.835S718.457,805.146,718.457,805.146Z" transform="translate(-591.067 -656.386)" fill="#2d293d"/>
        <path id="Path_28919" data-name="Path 28919" d="M667.451,807.04a2.028,2.028,0,0,1,.327.477h0l-4.038.468a1.794,1.794,0,0,0,.28-.951S666.715,806.251,667.451,807.04Z" transform="translate(-549.103 -661.53)" opacity="0.1"/>
        <path id="Path_28920" data-name="Path 28920" d="M728.386,801.033v.761c-.626,1.035-3.663.808-4.546.289a1.44,1.44,0,0,0,.19-.093,1.558,1.558,0,0,0,.668-1.3s2.693-.789,3.423,0A1.84,1.84,0,0,1,728.386,801.033Z" transform="translate(-597.772 -656.386)" opacity="0.1"/>
        <path id="Path_28921" data-name="Path 28921" d="M662.933,616.11a6.993,6.993,0,0,0-.481,1.029v2.71c-.685,1.141-4.253.761-4.734.137s-.995-2.229-.445-2.5.995-1.647.995-1.647-.584.137-1.51-.961-.652-3.534-.479-4.118a12.08,12.08,0,0,0,0-2.539,5.07,5.07,0,0,0-.242-1.818,22.383,22.383,0,0,1-.858-2.984,2.028,2.028,0,0,0-.479-1.3,5.9,5.9,0,0,1-.789-2.195,2.254,2.254,0,0,1-.348-1.474,2.98,2.98,0,0,0-.582-1.784l-1.166-3.7-1.1-2.779-.612,1.611s-.173,3.773-.034,4.565.342,2.881.342,2.881a4.246,4.246,0,0,0-.38,2.539,17.688,17.688,0,0,1,.205,3.671s.308,5.181.034,5.592a3.365,3.365,0,0,0-.24,1.442s1.406,3.018.951,3.423-.31,1.544-.31,1.544.951,0,.55.411a8.408,8.408,0,0,0-.7,2.579l-4.148.479a8.617,8.617,0,0,1-.93-1.75c-.55-1.27.1-1.141.656-1.269s.2-.481-.449-.892-.276-1.331-.276-1.331.995-1.681.652-1.82-.38-2.5-.38-2.5a15.336,15.336,0,0,1-.515-3.568,6.891,6.891,0,0,0-.55-2.573l-.24-2.162a5.947,5.947,0,0,1-.761-4.081v-3.334s-.951-6.449-1.1-9.709c-.087-2.092-.063-4.935-.034-6.714.017-1,.034-1.657.034-1.657L657.307,576a12.24,12.24,0,0,0,.268,2.2c.15.814.38,1.868.761,3.186a14.464,14.464,0,0,1,.411,6.586l-.137,4.77s1.3,3.19,1.029,4.289a9.127,9.127,0,0,0-.274,1.989s2.916,6.965,2.608,8.988.951,5.215.951,5.215S663.275,615.491,662.933,616.11Z" transform="translate(-531.838 -474.717)" fill="#575988"/>
        <path id="Path_28922" data-name="Path 28922" d="M705.71,690.351l4.513-.6S707.667,692.358,705.71,690.351Z" transform="translate(-583.09 -566.833)" opacity="0.05"/>
        <path id="Path_28923" data-name="Path 28923" d="M722.494,666.57s.154,1.6-.823,2.2C721.672,668.767,723.422,668.491,722.494,666.57Z" transform="translate(-596.015 -548.062)" opacity="0.1"/>
        <path id="Path_28924" data-name="Path 28924" d="M701.884,639.88s-3.772,3.1-5.135,2.853S701.884,639.88,701.884,639.88Z" transform="translate(-575.681 -526.448)" opacity="0.1"/>
        <path id="Path_28925" data-name="Path 28925" d="M663.742,700.58s-2.864.65-2.95,1.8S663.742,700.58,663.742,700.58Z" transform="translate(-546.714 -575.603)" opacity="0.1"/>
        <path id="Path_28926" data-name="Path 28926" d="M666.4,775.8s-4.047.761-2.9,1.269a20.4,20.4,0,0,0,3.043.926S667.846,778.063,666.4,775.8Z" transform="translate(-548.747 -636.517)" opacity="0.05"/>
        <g id="Group_8097" data-name="Group 8097" transform="translate(110.579 102.732)" opacity="0.05">
          <path id="Path_28927" data-name="Path 28927" d="M657.863,784.268a.806.806,0,0,1-.369-.588l-.042.072s-.38.926.274,1.331c.076.048.146.1.211.141.122-.023.251-.04.38-.07C658.865,785.021,658.515,784.679,657.863,784.268Z" transform="translate(-654.501 -745.63)"/>
          <path id="Path_28928" data-name="Path 28928" d="M686.683,782.316c.112-.1.108-.367.04-.706a1.913,1.913,0,0,0-.23.995A.835.835,0,0,1,686.683,782.316Z" transform="translate(-678.106 -743.954)"/>
          <path id="Path_28929" data-name="Path 28929" d="M683.064,695.58a4.612,4.612,0,0,0-.274,1.261,4.965,4.965,0,0,1,.314-.867S683.089,695.82,683.064,695.58Z" transform="translate(-675.109 -674.286)"/>
          <path id="Path_28930" data-name="Path 28930" d="M732.684,684.49a1.578,1.578,0,0,0,.038-.38c-.051.255-.087.493-.112.7A1.844,1.844,0,0,1,732.684,684.49Z" transform="translate(-715.453 -664.998)"/>
          <path id="Path_28931" data-name="Path 28931" d="M683.337,756.471a2.187,2.187,0,0,0,.1-.761,2.584,2.584,0,0,0-.19.962A.928.928,0,0,1,683.337,756.471Z" transform="translate(-675.481 -722.98)"/>
          <path id="Path_28932" data-name="Path 28932" d="M663.085,793.72a13.507,13.507,0,0,0-.472,2.107l-4.148.481a8.7,8.7,0,0,1-.93-1.75c-.048-.112-.086-.211-.116-.3-.249.114-.346.38-.021,1.126a8.777,8.777,0,0,0,.928,1.75l4.154-.481a8.246,8.246,0,0,1,.719-2.573C663.4,793.876,663.269,793.773,663.085,793.72Z" transform="translate(-654.378 -753.761)"/>
          <path id="Path_28933" data-name="Path 28933" d="M645.628,617.419s.034,2.368.38,2.5h0c.173-.392.289-.761.135-.825-.344-.137-.38-2.5-.38-2.5a15.339,15.339,0,0,1-.514-3.568,6.881,6.881,0,0,0-.55-2.573l-.24-2.161a5.94,5.94,0,0,1-.761-4.083V600.88s-.951-6.449-1.1-9.7c-.088-2.092-.063-4.945-.034-6.714,0-.321.01-.607.015-.846l-.118.011s-.019.66-.034,1.658c-.03,1.776-.055,4.625.034,6.712.137,3.26,1.1,9.709,1.1,9.709v3.328a5.94,5.94,0,0,0,.761,4.083l.242,2.147a6.881,6.881,0,0,1,.55,2.573A15.417,15.417,0,0,0,645.628,617.419Z" transform="translate(-642.403 -583.62)"/>
          <path id="Path_28934" data-name="Path 28934" d="M720.093,795.52a4,4,0,0,1-.656-1.63c-.424.38.063,1.866.519,2.453.479.616,4.047.995,4.734-.137v-.654C723.762,796.473,720.553,796.1,720.093,795.52Z" transform="translate(-704.654 -753.898)"/>
          <path id="Path_28935" data-name="Path 28935" d="M748.951,781.95a6.658,6.658,0,0,0-.481,1.029v.477c.078-.177.19-.411.344-.689a2.052,2.052,0,0,0,.15-.848A.118.118,0,0,0,748.951,781.95Z" transform="translate(-728.297 -744.205)"/>
          <path id="Path_28936" data-name="Path 28936" d="M716.327,763.379a6.619,6.619,0,0,0,.339-.816s-.584.137-1.51-.951a4.862,4.862,0,0,1-.616-3.292c-.173.582-.447,3.018.479,4.116A2.461,2.461,0,0,0,716.327,763.379Z" transform="translate(-700.677 -725.094)"/>
          <path id="Path_28937" data-name="Path 28937" d="M689.488,664.571a18.348,18.348,0,0,1,.068,2.033,2.959,2.959,0,0,1,.07-.32,12.064,12.064,0,0,0,0-2.537,5.1,5.1,0,0,0-.24-1.818,22.615,22.615,0,0,1-.858-2.986,2.021,2.021,0,0,0-.479-1.3,5.892,5.892,0,0,1-.789-2.2,2.246,2.246,0,0,1-.344-1.474,2.994,2.994,0,0,0-.582-1.784l-1.168-3.707-1.1-2.779-.618,1.613s0,.2-.021.521l.5-1.31,1.1,2.779,1.172,3.707a2.99,2.99,0,0,1,.584,1.784,2.246,2.246,0,0,0,.344,1.474,5.892,5.892,0,0,0,.787,2.2,2.031,2.031,0,0,1,.481,1.3,22.7,22.7,0,0,0,.858,2.986A5.05,5.05,0,0,1,689.488,664.571Z" transform="translate(-675.627 -633.893)"/>
        </g>
        <path id="Path_28938" data-name="Path 28938" d="M716.077,399.237l-.259,1.251.015.557.011.413-1.432.146-.16-.3h0a13.105,13.105,0,0,0-1.111-1.8c-.264-.223-.736-3.7-.169-3.5a1.5,1.5,0,0,1,.8.723S716.583,397.066,716.077,399.237Z" transform="translate(-588.756 -328.955)" fill="#ffcdd3"/>
        <path id="Path_28939" data-name="Path 28939" d="M722.432,422.252,721,422.4l-.16-.3h0a1.265,1.265,0,0,1,1.581-.261Z" transform="translate(-595.343 -349.742)" opacity="0.1"/>
        <path id="Path_28940" data-name="Path 28940" d="M722.445,423.46l-1.889.437-.038-.281-.108-.761a1.3,1.3,0,0,1,1.828-.249l.093.38Z" transform="translate(-594.994 -350.273)" fill="#dce6f2"/>
        <path id="Path_28941" data-name="Path 28941" d="M550.9,388.108l-2.014,1.08-.19-.38c-.19-.4-.477-1.006-.555-1.223-.12-.333-.96-.761-.96-.761-2.109-2.016.4-3.749.4-3.749,1.331-2.676,2.813.909,2.813.909a9.152,9.152,0,0,1,.061,2.016c-.145.127-.146.643-.146.643a7.81,7.81,0,0,1,.487,1.154C550.867,387.99,550.9,388.108,550.9,388.108Z" transform="translate(-454.028 -317.683)" fill="#ffcdd3"/>
        <path id="Path_28942" data-name="Path 28942" d="M560.944,412.4l-2.014,1.08-.19-.38c.283-.236,1.293-1.054,1.624-1.018a2.534,2.534,0,0,0,.477.013C560.912,412.285,560.944,412.4,560.944,412.4Z" transform="translate(-464.073 -341.977)" opacity="0.1"/>
        <path id="Path_28943" data-name="Path 28943" d="M561.441,413.634l-2.263,1.116-.046-.487-.032-.337s1.312-1.124,1.7-1.082a2.047,2.047,0,0,0,.591,0l.025.407Z" transform="translate(-464.364 -342.592)" fill="#dce6f2"/>
        <path id="Path_28944" data-name="Path 28944" d="M666.408,424.183s-9.875,1.115-8.028.515a2.476,2.476,0,0,0,1.9-2.142,5.144,5.144,0,0,0-.369-2.282,9.825,9.825,0,0,0-.883-1.784s7.549-4.152,6.039-.38a6.048,6.048,0,0,0-.428,1.788,5,5,0,0,0,.19,1.809A5.377,5.377,0,0,0,666.408,424.183Z" transform="translate(-544.576 -345.575)" fill="#ffcdd3"/>
        <path id="Path_28945" data-name="Path 28945" d="M668.819,418.1a6.048,6.048,0,0,0-.428,1.788,3.479,3.479,0,0,1-2.492.557,4.36,4.36,0,0,1-2.237-.19,9.82,9.82,0,0,0-.883-1.784S670.329,414.323,668.819,418.1Z" transform="translate(-548.325 -345.563)" opacity="0.1"/>
        <circle id="Ellipse_69" data-name="Ellipse 69" cx="4.083" cy="4.083" r="4.083" transform="translate(113.356 66.978)" fill="#ffcdd3"/>
        <path id="Path_28946" data-name="Path 28946" d="M666.408,444.432s-9.875,1.115-8.028.515a2.476,2.476,0,0,0,1.9-2.142,5.387,5.387,0,0,1,2.113-1.12,2.95,2.95,0,0,1,1.79-.029,2.487,2.487,0,0,1,.65.3,5.377,5.377,0,0,0,1.573,2.474Z" transform="translate(-544.576 -365.824)" opacity="0.1"/>
        <path id="Path_28947" data-name="Path 28947" d="M722.907,426.023l-1.889.437-.038-.281a1.668,1.668,0,0,1,1.813-.62Z" transform="translate(-595.456 -352.836)" opacity="0.1"/>
        <path id="Path_28948" data-name="Path 28948" d="M561.579,415.372l-2.263,1.116L559.27,416a16.642,16.642,0,0,1,2.282-1.012Z" transform="translate(-464.502 -344.33)" opacity="0.1"/>
        <path id="Path_28949" data-name="Path 28949" d="M657.7,578.2c-3.823.6-9.266,1.39-10.13,1.128a25.6,25.6,0,0,0-4.994-.127c.017-1,.034-1.657.034-1.657L657.436,576A12.243,12.243,0,0,0,657.7,578.2Z" transform="translate(-531.967 -474.717)" opacity="0.1"/>
        <path id="Path_28950" data-name="Path 28950" d="M591.541,447.438s-12.591,2.162-13.943,1.75-8.289.034-8.289.034c-3.121,2.092-1.818-.995-1.818-.995a7.681,7.681,0,0,1,.1-2.916,17.759,17.759,0,0,0,.525-2.916,6.8,6.8,0,0,1,.308-2.539,19.593,19.593,0,0,0,.824-3.912s.344-2.332.31-2.853a19.514,19.514,0,0,1,.1-1.955l.445-2.4c-2.573-.342-10.4-5.147-10.4-5.147-.38-1.611-3.292-5.386-3.292-5.386a3.917,3.917,0,0,0-.242-.926c-.205-.548,2.883-1.645,2.883-1.645s2.3,2.813,2.779,3.568a15.675,15.675,0,0,0,2.126,2.161,1.674,1.674,0,0,1,.761.1l.04.011h0a6.152,6.152,0,0,1,1.537.882,2.978,2.978,0,0,1,2.092.789s1.407-.205,1.647.034,1.442,0,1.442,0,1.2-2.539,1.989-1.8,4.137.7,4.137.7a4.948,4.948,0,0,1,2.212-1.238,2.963,2.963,0,0,1,1.79-.029,2.307,2.307,0,0,1,.706.34l2.031,1.989s.584-.761.515-.926.687-.308.687-.308.995-.31,1.371-.413.723.306.761.342a4.022,4.022,0,0,1-.169-1.508,1.776,1.776,0,0,0-.413-1.236c1.2-2.95,3.912-.479,3.912-.479a5.657,5.657,0,0,1,.034,2.229c-.274.616.274,1.923.205,2.265s.137.926.137,1.579a9.256,9.256,0,0,1-.55,2.434c-.207.548-1.852,1.784-1.852,1.784a7.743,7.743,0,0,1-.824,3.089c-.721,1.132-.295,5.01-.295,5.01s.687,3.026,1.55,3.994S591.541,447.438,591.541,447.438Z" transform="translate(-461.99 -344.849)" fill="#656691"/>
        <path id="Path_28951" data-name="Path 28951" d="M638.346,455.224s-.38-1.132-.721-1.234a8.166,8.166,0,0,1-.995-.447l.221-.422s1.288.354,1.495.73A2.946,2.946,0,0,1,638.346,455.224Z" transform="translate(-527.149 -375.208)" opacity="0.1"/>
        <path id="Path_28952" data-name="Path 28952" d="M596.093,447.186c-.068.342-3.123.652-3.123.652l1.544-1.548h0l.038.013h0A6.15,6.15,0,0,1,596.093,447.186Z" transform="translate(-491.792 -369.677)" opacity="0.1"/>
        <circle id="Ellipse_70" data-name="Ellipse 70" cx="0.274" cy="0.274" r="0.274" transform="translate(95.19 72.527)" fill="#575988"/>
        <circle id="Ellipse_71" data-name="Ellipse 71" cx="0.274" cy="0.274" r="0.274" transform="translate(95.542 73.077)" fill="#575988"/>
        <circle id="Ellipse_72" data-name="Ellipse 72" cx="0.274" cy="0.274" r="0.274" transform="translate(95.886 73.583)" fill="#575988"/>
        <circle id="Ellipse_73" data-name="Ellipse 73" cx="0.274" cy="0.274" r="0.274" transform="translate(96.246 74.133)" fill="#575988"/>
        <circle id="Ellipse_74" data-name="Ellipse 74" cx="0.223" cy="0.223" r="0.223" transform="translate(128.637 74.154)" fill="#575988"/>
        <circle id="Ellipse_75" data-name="Ellipse 75" cx="0.223" cy="0.223" r="0.223" transform="translate(128.672 74.659)" fill="#575988"/>
        <circle id="Ellipse_76" data-name="Ellipse 76" cx="0.223" cy="0.223" r="0.223" transform="translate(128.702 75.165)" fill="#575988"/>
        <path id="Path_28953" data-name="Path 28953" d="M645.74,513.059c-.032-.04,7.7,9.726,13.705,4.083C659.445,517.143,649.958,518.429,645.74,513.059Z" transform="translate(-534.526 -423.748)" opacity="0.1"/>
        <path id="Path_28954" data-name="Path 28954" d="M622.38,539.76s4.627.125,5.11,1.457V542.6a.884.884,0,0,1-.86,0c-.466-.253-3.266-1.674-4.251-.991Z" transform="translate(-515.609 -445.37)" opacity="0.1"/>
        <path id="Path_28955" data-name="Path 28955" d="M622.83,539.76s4.426.12,4.888,1.39v1.318a.848.848,0,0,1-.824,0c-.445-.24-3.121-1.6-4.064-.951Z" transform="translate(-515.973 -445.37)" fill="#656691"/>
        <path id="Path_28956" data-name="Path 28956" d="M635.66,486.92A14.949,14.949,0,0,0,637.453,490a12.073,12.073,0,0,0,2.811,2.714S635.736,487.557,635.66,486.92Z" transform="translate(-526.363 -402.58)" opacity="0.1"/>
        <path id="Path_28957" data-name="Path 28957" d="M627.7,458.65s.772,3.332,2.762,4.466Z" transform="translate(-519.917 -379.686)" opacity="0.1"/>
        <path id="Path_28958" data-name="Path 28958" d="M621.178,460.416c-.019-.061-.685,2.636,2.566,4.129C623.751,464.545,622.363,464.075,621.178,460.416Z" transform="translate(-514.58 -381.116)" opacity="0.1"/>
        <path id="Path_28959" data-name="Path 28959" d="M727.715,448.661a23.331,23.331,0,0,1,2.054,1.542S728.693,448.592,727.715,448.661Z" transform="translate(-600.909 -371.596)" opacity="0.1"/>
        <path id="Path_28960" data-name="Path 28960" d="M658.24,397.331a.869.869,0,0,0,.319.552.881.881,0,0,0,.38.086,8.262,8.262,0,0,0,3.692-.348,1.4,1.4,0,0,0,.571-.371,2.3,2.3,0,0,0,.327-.9,11.859,11.859,0,0,1,.761-1.735,5.818,5.818,0,0,0,.4-3.113,2.063,2.063,0,0,0-.31-.911c-.331-.472-.932-.662-1.369-1.037s-.717-.951-1.227-1.232a2.367,2.367,0,0,0-1.541-.137,8.129,8.129,0,0,0-2.895,1.08,1.437,1.437,0,0,1-.951.327,1.328,1.328,0,0,1-.708-.542,3.8,3.8,0,0,0-.3,1.778.793.793,0,0,1,0,.268.829.829,0,0,1-.19.283,1.025,1.025,0,0,0-.19,1.28c.131.158.335.243.464.4.23.287.152.7.146,1.067a.544.544,0,0,0,.091.361.527.527,0,0,0,.5.12,1.4,1.4,0,0,1,.536-.051.883.883,0,0,1,.466.359A6.6,6.6,0,0,1,658.24,397.331Z" transform="translate(-541.904 -322.569)" fill="#2d293d"/>
        <g id="Group_8098" data-name="Group 8098" transform="translate(112.935 66.437)" opacity="0.1">
          <path id="Path_28961" data-name="Path 28961" d="M663.281,411.463a1.381,1.381,0,0,1-.571.38,8.222,8.222,0,0,1-3.692.346.829.829,0,0,1-.38-.086.864.864,0,0,1-.32-.552,6.357,6.357,0,0,0-1.04-2.414.883.883,0,0,0-.466-.359,1.362,1.362,0,0,0-.536.051.531.531,0,0,1-.5-.12.548.548,0,0,1-.091-.363c0-.367.084-.78-.146-1.065-.129-.162-.331-.245-.464-.4a.806.806,0,0,1-.08-.82.939.939,0,0,0-.057,1.094c.131.158.335.243.464.4.23.287.152.7.146,1.067a.544.544,0,0,0,.091.361.527.527,0,0,0,.5.12,1.4,1.4,0,0,1,.536-.051.883.883,0,0,1,.466.359,6.444,6.444,0,0,1,1.04,2.415.645.645,0,0,0,.7.637,8.262,8.262,0,0,0,3.692-.348,1.4,1.4,0,0,0,.571-.371,1.089,1.089,0,0,0,.177-.331A.577.577,0,0,1,663.281,411.463Z" transform="translate(-654.786 -403.536)"/>
          <path id="Path_28962" data-name="Path 28962" d="M657.59,394.768a.571.571,0,0,0,.126-.205.794.794,0,0,0,0-.268,3.784,3.784,0,0,1,.19-1.478l-.023-.027a3.777,3.777,0,0,0-.3,1.778A1.169,1.169,0,0,1,657.59,394.768Z" transform="translate(-657.04 -392.79)"/>
        </g>
        <path id="Path_28963" data-name="Path 28963" d="M668.84,449.181s5.1.675,5.559-.091" transform="translate(-553.233 -371.945)" opacity="0.1"/>
        <path id="Path_28964" data-name="Path 28964" d="M721,438.47s2.832,0,3.456,1.067" transform="translate(-595.472 -363.345)" opacity="0.1"/>
        <path id="Path_28965" data-name="Path 28965" d="M1037.581,425s.354.462-.164,1.162-.951,1.291-.772,1.727c0,0,.782-1.3,1.417-1.318S1038.281,425.772,1037.581,425Z" transform="translate(-851.051 -352.436)" fill="#1ed7b5"/>
        <path id="Path_28966" data-name="Path 28966" d="M1037.675,425a.633.633,0,0,1,.072.145c.62.73.951,1.409.354,1.426-.555.017-1.221,1.01-1.381,1.261a.169.169,0,0,0,.019.057c.008.019.782-1.3,1.417-1.318S1038.375,425.772,1037.675,425Z" transform="translate(-851.145 -352.436)" opacity="0.1"/>
        <path id="Path_28967" data-name="Path 28967" d="M1044.852,427.606c0,.164-.017.3-.04.3s-.042-.133-.042-.3.023-.086.046-.086S1044.852,427.445,1044.852,427.606Z" transform="translate(-857.664 -354.463)" fill="#ffd037"/>
        <path id="Path_28968" data-name="Path 28968" d="M1045.205,428.6c-.143.078-.268.126-.278.1s.1-.1.24-.177.086-.021.1,0S1045.35,428.525,1045.205,428.6Z" transform="translate(-857.791 -355.263)" fill="#ffd037"/>
        <path id="Path_28969" data-name="Path 28969" d="M1028.507,425s-.356.462.164,1.162.951,1.291.772,1.727c0,0-.782-1.3-1.419-1.318S1027.807,425.772,1028.507,425Z" transform="translate(-843.849 -352.436)" fill="#1ed7b5"/>
        <path id="Path_28970" data-name="Path 28970" d="M1028.507,425a.581.581,0,0,0-.074.145c-.62.73-.951,1.409-.354,1.426.555.017,1.223,1.01,1.383,1.261a.169.169,0,0,1-.019.057c-.008.019-.782-1.3-1.419-1.318S1027.807,425.772,1028.507,425Z" transform="translate(-843.849 -352.436)" opacity="0.1"/>
        <path id="Path_28971" data-name="Path 28971" d="M1028.43,427.609c0,.164.019.3.042.3a.6.6,0,0,0,.04-.3c0-.162-.023-.086-.046-.086S1028.43,427.448,1028.43,427.609Z" transform="translate(-844.432 -354.466)" fill="#ffd037"/>
        <path id="Path_28972" data-name="Path 28972" d="M1026.868,428.6c.145.078.268.126.28.1s-.1-.1-.24-.177-.088-.021-.1,0S1026.725,428.525,1026.868,428.6Z" transform="translate(-843.096 -355.263)" fill="#ffd037"/>
        <path id="Path_28973" data-name="Path 28973" d="M1029,437.54a3.625,3.625,0,0,0,1.29-.243c.3-.213,1.521-.466,1.6-.126s1.489,1.7.38,1.712a9.309,9.309,0,0,1-2.9-.356C1029.072,438.344,1029,437.54,1029,437.54Z" transform="translate(-844.893 -362.158)" fill="#a8a8a8"/>
        <path id="Path_28974" data-name="Path 28974" d="M1032.283,441.039a9.793,9.793,0,0,1-2.9-.356c-.228-.139-.318-.635-.348-.863H1029s.063.8.361.981a9.494,9.494,0,0,0,2.9.356c.323,0,.434-.118.428-.287C1032.646,440.973,1032.524,441.037,1032.283,441.039Z" transform="translate(-844.893 -364.438)" opacity="0.2"/>
      </g>
      <rect id="Rectangle_2935" data-name="Rectangle 2935" width="185" height="185" transform="translate(373 1184)" fill="none"/>
    </g>
  </g>
</svg>
