<svg xmlns="http://www.w3.org/2000/svg" xmlns:xlink="http://www.w3.org/1999/xlink" width="217.285" height="269" viewBox="0 0 217.285 269">
  <defs>
    <linearGradient id="linear-gradient" x1="0.038" y1="0.938" x2="0.994" y2="0.066" gradientUnits="objectBoundingBox">
      <stop offset="0" stop-color="#f0f9a7"/>
      <stop offset="1" stop-color="#f3696e"/>
    </linearGradient>
    <filter id="Ellipse_43" x="26.285" y="66" width="191" height="191" filterUnits="userSpaceOnUse">
      <feOffset dx="3" dy="3" input="SourceAlpha"/>
      <feGaussianBlur stdDeviation="10" result="blur"/>
      <feFlood flood-opacity="0.161"/>
      <feComposite operator="in" in2="blur"/>
      <feComposite in="SourceGraphic"/>
    </filter>
  </defs>
  <g id="feature-3" transform="translate(-366 -1421)">
    <g id="amoeba3" transform="translate(5 63)">
      <path id="Path_28813" data-name="Path 28813" d="M5588.016,1285.692c-15.1,64.415,2.3,76.059,37.583,93.576s111.394-26.791,145.191-65.89-20.944-46.791-52.429-89.239,12.061-118.979-32.344-102.53S5603.121,1221.277,5588.016,1285.692Z" transform="translate(-5215.715 239)" fill="url(#linear-gradient)"/>
      <rect id="Rectangle_2909" data-name="Rectangle 2909" width="205" height="269" transform="translate(361 1358)" fill="none"/>
    </g>
    <g id="illustration3">
      <g transform="matrix(1, 0, 0, 1, 366, 1421)" filter="url(#Ellipse_43)">
        <circle id="Ellipse_43-2" data-name="Ellipse 43" cx="65.5" cy="65.5" r="65.5" transform="translate(53.29 93)" fill="#fff"/>
      </g>
      <g id="undraw_Group_chat_re_frmo_1_" data-name="undraw_Group_chat_re_frmo (1)" transform="translate(387.845 1518.085)">
        <path id="Path_29046" data-name="Path 29046" d="M212.325,583.619a1.449,1.449,0,0,0-2.208-.251l-4.577-2.362.285,2.661,4.3,1.835a1.457,1.457,0,0,0,2.2-1.883Z" transform="translate(-191.223 -510.666)" fill="#a0616a"/>
        <path id="Path_29047" data-name="Path 29047" d="M159.18,527.318a.649.649,0,0,1-.529.006l-4.347-1.886a6.684,6.684,0,0,1-3.382-3.271l-2.285-4.824a2.089,2.089,0,1,1,3.3-2.563l4.017,7.454,3.71,2.8a.651.651,0,0,1,.229.709l-.364,1.176a.648.648,0,0,1-.349.4Z" transform="translate(-142.146 -453.293)" fill="#ccc"/>
        <circle id="Ellipse_83" data-name="Ellipse 83" cx="3.54" cy="3.54" r="3.54" transform="translate(2.851 51.295)" fill="#a0616a"/>
        <path id="Path_29048" data-name="Path 29048" d="M54.286,662.171h1.767l.841-6.816H54.286Z" transform="translate(-46.462 -560.897)" fill="#a0616a"/>
        <path id="Path_29049" data-name="Path 29049" d="M0,0H5.554V2.146H2.146A2.146,2.146,0,0,1,0,0H0Z" transform="translate(12.999 102.914) rotate(179.997)" fill="#2f2e41"/>
        <path id="Path_29050" data-name="Path 29050" d="M14.286,662.171h1.767l.841-6.816H14.286Z" transform="translate(-12.227 -560.897)" fill="#a0616a"/>
        <path id="Path_29051" data-name="Path 29051" d="M0,0H5.554V2.146H2.146A2.146,2.146,0,0,1,0,0H0Z" transform="translate(7.234 102.914) rotate(179.997)" fill="#2f2e41"/>
        <path id="Path_29052" data-name="Path 29052" d="M115.26,641.266a.648.648,0,0,1-.155-.513l3.094-23.2,7.686,1.305.82-.492-2.121,22.015a.65.65,0,0,1-.59.571l-2.327.194a.649.649,0,0,1-.7-.684l.6-10.484a.072.072,0,0,0-.142-.023l-2.981,11.055a.65.65,0,0,1-.626.48h-2.071a.648.648,0,0,1-.488-.221Z" transform="translate(-113.818 -541.944)" fill="#2f2e41"/>
        <path id="Path_29053" data-name="Path 29053" d="M121.582,524.116a.509.509,0,0,0-.651-.027l-1.537,1.2a.648.648,0,0,1-1.022-.332c-.754-2.64-2.462-9.285-2.041-13.962a4.9,4.9,0,0,1,5.1-4.5,3.656,3.656,0,0,1,3.443,3.019c1.286,4.63,2.7,13.122,2.97,14.778a.646.646,0,0,1-.308.661,4.747,4.747,0,0,1-2.406.677A5.278,5.278,0,0,1,121.582,524.116Z" transform="translate(-114.816 -446.885)" fill="#fff"/>
        <path id="Path_29054" data-name="Path 29054" d="M126.622,603.169a1.449,1.449,0,0,0-1.582-1.561l-2.144-4.683-1.418,2.27,2.253,4.1a1.457,1.457,0,0,0,2.891-.125Z" transform="translate(-119.276 -524.291)" fill="#a0616a"/>
        <path id="Path_29055" data-name="Path 29055" d="M109.69,531.083a.649.649,0,0,1-.42-.322l-2.257-4.167a6.684,6.684,0,0,1-.642-4.661l1.179-5.207a2.089,2.089,0,0,1,4.179.02l-1.439,8.344,1.19,4.494a.651.651,0,0,1-.258.7l-1.012.7a.649.649,0,0,1-.37.115A.64.64,0,0,1,109.69,531.083Z" transform="translate(-106.206 -453.873)" fill="#ccc"/>
        <path id="Path_29056" data-name="Path 29056" d="M28.622,460.644l-1.3,5.477,1.874,4.612-1.3-4.468Z" transform="translate(-23.387 -394.25)" opacity="0.2"/>
        <path id="Path_29057" data-name="Path 29057" d="M117.387,448.269a2.384,2.384,0,0,1-.921-.167c-.129-.05-.263-.091-.391-.14a3.174,3.174,0,0,1-1.911-2.866,4.128,4.128,0,0,1,1.54-3.178,5.96,5.96,0,0,1,3.363-1.271,3.811,3.811,0,0,1,3.512,1.321,1.147,1.147,0,0,1,.215.992.635.635,0,0,1-.179.275c-.326.29-.652.072-.985.053a1.088,1.088,0,0,0-1.016.777,2.343,2.343,0,0,0,.037,1.354,3.382,3.382,0,0,1,.17.823.827.827,0,0,1-.343.729.944.944,0,0,1-.947-.1,6.58,6.58,0,0,0-.842-.539.744.744,0,0,0-.9.183,1,1,0,0,0-.114.33C117.511,447.578,117.548,447.535,117.387,448.269Z" transform="translate(-113.016 -390.523)" fill="#2f2e41"/>
        <path id="Path_29058" data-name="Path 29058" d="M336.566,323.466H249.077a1.258,1.258,0,0,0-1.257,1.257v59.285a1.258,1.258,0,0,0,1.257,1.257h87.488a1.256,1.256,0,0,0,.956-.441.293.293,0,0,0,.027-.035,1.178,1.178,0,0,0,.18-.3,1.226,1.226,0,0,0,.1-.477V347.1h-.359v36.905a.891.891,0,0,1-.148.493.93.93,0,0,1-.34.306.89.89,0,0,1-.411.1H249.077a.9.9,0,0,1-.9-.9V324.723a.9.9,0,0,1,.9-.9h87.488a.9.9,0,0,1,.9.9v7.966h.359v-7.966A1.258,1.258,0,0,0,336.566,323.466Z" transform="translate(-227.409 -290.246)" fill="#3f3d56"/>
        <rect id="Rectangle_2928" data-name="Rectangle 2928" width="89.644" height="0.359" transform="translate(20.59 38.257)" fill="#3f3d56"/>
        <circle id="Ellipse_84" data-name="Ellipse 84" cx="1.078" cy="1.078" r="1.078" transform="translate(22.566 34.837)" fill="#ccc"/>
        <circle id="Ellipse_85" data-name="Ellipse 85" cx="1.078" cy="1.078" r="1.078" transform="translate(25.665 34.837)" fill="#ccc"/>
        <circle id="Ellipse_86" data-name="Ellipse 86" cx="1.078" cy="1.078" r="1.078" transform="translate(28.764 34.837)" fill="#ccc"/>
        <path id="Path_29059" data-name="Path 29059" d="M428.55,450.738a2.231,2.231,0,0,1-2.027-3.139l2.568-5.729a19.21,19.21,0,1,1,7.262,4.045l-6.554,4.437A2.225,2.225,0,0,1,428.55,450.738ZM441.8,411.125a16.451,16.451,0,0,0-10.249,29.328l.809.645-2.763,6.165,6.341-4.293.626.21a16.456,16.456,0,1,0,5.236-32.056Z" transform="translate(-377.058 -362.987)" fill="#3f3d56"/>
        <circle id="Ellipse_87" data-name="Ellipse 87" cx="2.669" cy="2.669" r="2.669" transform="translate(62.074 61.041)" fill="#3f3d56"/>
        <circle id="Ellipse_88" data-name="Ellipse 88" cx="2.669" cy="2.669" r="2.669" transform="translate(54.511 61.041)" fill="#3f3d56"/>
        <circle id="Ellipse_89" data-name="Ellipse 89" cx="2.669" cy="2.669" r="2.669" transform="translate(69.637 61.041)" fill="#3f3d56"/>
        <path id="Path_29060" data-name="Path 29060" d="M863.639,448.014H838.271a1.153,1.153,0,1,1,0-2.306h25.367a1.153,1.153,0,1,1,0,2.306Z" transform="translate(-731.77 -394.869)" fill="#ccc"/>
        <path id="Path_29061" data-name="Path 29061" d="M847.064,414.014h-8.792a1.153,1.153,0,1,1,0-2.306h8.792a1.153,1.153,0,1,1,0,2.306Z" transform="translate(-731.77 -365.77)" fill="#ccc"/>
        <circle id="Ellipse_90" data-name="Ellipse 90" cx="4.901" cy="4.901" r="4.901" transform="translate(90.111 44.749)" fill="#1ed7b5"/>
        <path id="Path_29062" data-name="Path 29062" d="M752.9,385.456H707.21a2.454,2.454,0,0,0-2.45,2.45V398a2.454,2.454,0,0,0,2.45,2.45H752.9a2.454,2.454,0,0,0,2.45-2.45V387.906A2.454,2.454,0,0,0,752.9,385.456ZM755.062,398a2.165,2.165,0,0,1-2.162,2.162H707.21A2.165,2.165,0,0,1,705.048,398V387.906a2.165,2.165,0,0,1,2.162-2.162H752.9a2.165,2.165,0,0,1,2.162,2.162Z" transform="translate(-618.489 -343.302)" fill="#3f3d56"/>
        <circle id="Ellipse_91" data-name="Ellipse 91" cx="3.315" cy="3.315" r="3.315" transform="translate(133.258 39.56)" fill="#1ed7b5"/>
        <path id="Path_29063" data-name="Path 29063" d="M1052.8,380.143a.143.143,0,0,1-.042-.1v-3.669a.144.144,0,0,1,.288,0v3.669a.144.144,0,0,1-.246.1Z" transform="translate(-916.331 -335.404)" fill="#fff"/>
        <path id="Path_29064" data-name="Path 29064" d="M1040.074,389.2a.144.144,0,0,1,.1-.246h3.669a.144.144,0,0,1,0,.288h-3.669A.144.144,0,0,1,1040.074,389.2Z" transform="translate(-905.438 -346.297)" fill="#fff"/>
        <path id="Path_29065" data-name="Path 29065" d="M993.567,696.162h-6.92c0,.2-7.132.36-7.132.36a1.855,1.855,0,0,0-.3.288,1.789,1.789,0,0,0-.418,1.153v.288a1.8,1.8,0,0,0,1.8,1.8h12.972a1.8,1.8,0,0,0,1.8-1.8v-.288A1.8,1.8,0,0,0,993.567,696.162Z" transform="translate(-853.026 -609.225)" fill="#3f3d56"/>
        <rect id="Rectangle_2929" data-name="Rectangle 2929" width="1.874" height="12.107" transform="translate(133.19 90.757)" fill="#3f3d56"/>
        <path id="Path_29066" data-name="Path 29066" d="M1004.972,795.474c0,.2-2.839.078-6.342.078s-6.342.124-6.342-.078,2.839-1.808,6.342-1.808S1004.972,795.271,1004.972,795.474Z" transform="translate(-864.576 -692.675)" fill="#3f3d56"/>
        <circle id="Ellipse_92" data-name="Ellipse 92" cx="4.036" cy="4.036" r="4.036" transform="translate(130.692 62.641)" fill="#2f2e41"/>
        <path id="Path_29067" data-name="Path 29067" d="M849.588,661.7h-1.767l-.841-6.816h2.608Z" transform="translate(-724.903 -560.496)" fill="#ffb8b8"/>
        <path id="Path_29068" data-name="Path 29068" d="M831.314,698.671h3.408v2.146h-5.554A2.146,2.146,0,0,1,831.314,698.671Z" transform="translate(-709.659 -597.97)" fill="#2f2e41"/>
        <path id="Path_29069" data-name="Path 29069" d="M835.924,652.08l-1.686-.529,1.238-6.755,2.488.781Z" transform="translate(-713.997 -551.86)" fill="#ffb8b8"/>
        <path id="Path_29070" data-name="Path 29070" d="M2.146,0H5.554V2.146H0A2.146,2.146,0,0,1,2.146,0Z" transform="translate(117.14 98.189) rotate(17.423)" fill="#2f2e41"/>
        <path id="Path_29071" data-name="Path 29071" d="M957.874,673.09a5.449,5.449,0,0,0-.219-1.012l-.33-.415-.859-1.078h-.037c-.063,0-.327.017-.735.049h0c-.252.02-.561.046-.911.079l-.288.029v1.5h1.8a.361.361,0,0,1,.357.314c0,.016,0,.03,0,.046a.361.361,0,0,1-.36.36H945.827a4.121,4.121,0,0,0-.383.288,2.145,2.145,0,0,0-.757,1.133c-.611,2.687-1.725,7.7-2.054,9.168a.654.654,0,0,0,.195.617.64.64,0,0,0,.212.131l1.3.487a.689.689,0,0,0,.166.039h.061a.653.653,0,0,0,.607-.418l1.026-2.692,1.581-4.151.625-1.642c.725.17,6.807,1.516,8.844-.653a2.316,2.316,0,0,0,.467-.737A3,3,0,0,0,957.874,673.09Z" transform="translate(-822.064 -587.335)" fill="#2f2e41"/>
        <path id="Path_29072" data-name="Path 29072" d="M970.767,679.474c-.032-.128-.068-.261-.109-.395l-1.189-1.493h-.037c-.075,0-.431.023-.977.068-.62.052-1.486.135-2.459.267l-.088.012-.288.04v.267h1.8a.361.361,0,0,1,.357.314c0,.016,0,.03,0,.046a.36.36,0,0,1-.36.36h-6.368c-.278.091-.546.186-.8.288-1.346.533-2.354,1.232-2.56,2.142-.069.306-.146.641-.226,1-.3,1.329-.665,2.956-.995,4.435h0c-.068.306-.135.6-.2.891-.275,1.24-.509,2.29-.633,2.842l-.009.046v0a.673.673,0,0,0,.04.33h0a.639.639,0,0,0,.187.258.663.663,0,0,0,.186.108l1.3.487a.658.658,0,0,0,.226.042.64.64,0,0,0,.31-.079.649.649,0,0,0,.3-.339l2.8-7.345.434-1.14c.725.17,6.807,1.515,8.844-.653a2.434,2.434,0,0,0,.646-1.6A4.277,4.277,0,0,0,970.767,679.474Z" transform="translate(-833.193 -593.326)" fill="#2f2e41"/>
        <path id="Path_29073" data-name="Path 29073" d="M1016.806,595.477c-.023-.027-.048-.055-.073-.081a3.527,3.527,0,0,0-3.023-1.065,11.437,11.437,0,0,0-1.428.281,3.6,3.6,0,0,0-1.611.9,3.519,3.519,0,0,0-1.068,2.623c.006.2.007.4,0,.6,0,.1,0,.192,0,.288h1.421a.768.768,0,0,1,.183.022.794.794,0,0,1,.61.771v6.705c.1.027.193.055.288.084l.088.027.1.03q.439.136.858.288h.47a.361.361,0,0,1,.357.314l.287.117c.333.138.649.277.938.411.391.179.738.349,1.029.5a.661.661,0,0,0,.3.072.635.635,0,0,0,.375-.124.787.787,0,0,0,.065-.053.649.649,0,0,0,.2-.574,18.465,18.465,0,0,1-.13-3.416c.04-.958.127-1.941.239-2.891.061-.515.128-1.019.2-1.5.068-.464.14-.909.21-1.33A3.546,3.546,0,0,0,1016.806,595.477Z" transform="translate(-879.392 -522.044)" fill="#1ed7b5"/>
        <path id="Path_29074" data-name="Path 29074" d="M999.043,602.475a1.716,1.716,0,0,0-.228-.079,1.657,1.657,0,0,0-1.952.941l-.99,2.286-.124.288h3.42a.767.767,0,0,1,.183.022l.115-.267.438-1.012A1.659,1.659,0,0,0,999.043,602.475Z" transform="translate(-867.538 -528.924)" fill="#1ed7b5"/>
        <circle id="Ellipse_93" data-name="Ellipse 93" cx="3.54" cy="3.54" r="3.54" transform="translate(131.041 64.081)" fill="#ffb8b8"/>
        <path id="Path_29075" data-name="Path 29075" d="M1014.933,535.562a12.77,12.77,0,0,0,5.524,1.82l-.582-.7a4.28,4.28,0,0,0,1.322.263,1.448,1.448,0,0,0,1.18-.552,1.347,1.347,0,0,0,.09-1.244,2.551,2.551,0,0,0-.8-1,4.776,4.776,0,0,0-4.446-.795,2.854,2.854,0,0,0-1.328.852c-.336.414-.982.783-.81,1.287Z" transform="translate(-883.956 -469.68)" fill="#2f2e41"/>
        <path id="Path_29076" data-name="Path 29076" d="M967.753,512.392a10.88,10.88,0,0,0-3.958-2.56,5.57,5.57,0,0,0-3-.372,2.858,2.858,0,0,0-2.226,1.875,3.539,3.539,0,0,0,.362,2.422c.354.755.827,1.456,1.113,2.24a5.112,5.112,0,0,1-5.144,6.855,25.441,25.441,0,0,1,2.85.84,2.986,2.986,0,0,0,2.809-.459,3.823,3.823,0,0,0,.734-2.961q-.081-2.338-.163-4.676a5.941,5.941,0,0,1,.235-2.357,2.024,2.024,0,0,1,1.763-1.385,2.893,2.893,0,0,1,1.62.73,3.31,3.31,0,0,0,1.6.8c.6.054,1.286-.391,1.241-.992Z" transform="translate(-832.577 -449.367)" fill="#2f2e41"/>
        <path id="Path_29077" data-name="Path 29077" d="M1030.634,632.386l-2.021.055-.147,1.42-.033.329-3.165,1.421-.288.13v2.527l.288-.082.911-.259h0l4.012-1.143.046-.013a1.568,1.568,0,0,0,1.133-1.492l.01-1.676.009-1.235Z" transform="translate(-892.555 -554.623)" fill="#ffb8b8"/>
        <path id="Path_29078" data-name="Path 29078" d="M1049.1,603.784a1.658,1.658,0,0,0-3.309.2l.22,3.6a.647.647,0,0,0,.264.481.64.64,0,0,0,.424.125l1.545-.1.468-.029a.632.632,0,0,0,.447-.218.461.461,0,0,0,.034-.043.644.644,0,0,0,.127-.427Z" transform="translate(-910.364 -528.83)" fill="#1ed7b5"/>
        <path id="Path_29079" data-name="Path 29079" d="M938.156,633.052h-.186v-.019l-.288.04v.267h1.332Q938.594,633.189,938.156,633.052Zm0,0h-.186v-.019l-.288.04v.267h1.332Q938.594,633.189,938.156,633.052Zm1.327,0H937.97v-6.846a1.083,1.083,0,0,0-.783-1.038,1.018,1.018,0,0,0-.3-.043H924.061a1.082,1.082,0,0,0-1.081,1.081v7.063a1.081,1.081,0,0,0,1.081,1.081h15.422a.649.649,0,0,0,.644-.578.57.57,0,0,0,0-.071A.65.65,0,0,0,939.483,633.052Zm.36.649a.36.36,0,0,1-.36.36H924.061a.793.793,0,0,1-.793-.793v-7.063a.793.793,0,0,1,.793-.793h12.828a.767.767,0,0,1,.183.022.794.794,0,0,1,.61.771v7.135h1.8a.361.361,0,0,1,.357.314C939.842,633.671,939.843,633.685,939.843,633.7Zm-1.688-.649h-.186v-.019l-.288.04v.267h1.332Q938.594,633.189,938.156,633.052Z" transform="translate(-805.256 -548.427)" fill="#3f3d56"/>
        <circle id="Ellipse_94" data-name="Ellipse 94" cx="0.865" cy="0.865" r="0.865" transform="translate(124.353 80.446)" fill="#1ed7b5"/>
        <path id="Path_29080" data-name="Path 29080" d="M398.244,157.34a1.254,1.254,0,0,0,.006.2l-4.526,3.8-1.35-.489-1,1.941,2.951,1.4,4.948-5.553a1.251,1.251,0,1,0-1.025-1.3Z" transform="translate(-350.269 -147.054)" fill="#ffb8b8"/>
        <path id="Path_29081" data-name="Path 29081" d="M364.681,180.7l-4.371-1.578A1.608,1.608,0,0,1,361.4,176.1l4.371,1.578a.536.536,0,0,1,.322.686l-.728,2.017A.537.537,0,0,1,364.681,180.7Z" transform="translate(-322.776 -164.039)" fill="#ccc"/>
        <path id="Path_29082" data-name="Path 29082" d="M268.528,188.8h1.461l.695-5.634h-2.156Z" transform="translate(-229.825 -156.762)" fill="#ffb8b8"/>
        <path id="Path_29083" data-name="Path 29083" d="M0,0H4.591V1.774H1.774A1.774,1.774,0,0,1,0,0H0Z" transform="translate(42.981 33.39) rotate(179.997)" fill="#2f2e41"/>
        <path id="Path_29084" data-name="Path 29084" d="M243.484,181.793l1.195.84,3.809-4.209-1.763-1.24Z" transform="translate(-208.39 -151.646)" fill="#ffb8b8"/>
        <path id="Path_29085" data-name="Path 29085" d="M0,0H4.591V1.774H1.774A1.774,1.774,0,0,1,0,0H0Z" transform="matrix(-0.818, -0.575, 0.575, -0.818, 37.669, 33.429)" fill="#2f2e41"/>
        <path id="Path_29086" data-name="Path 29086" d="M367.5,244.641s3.645-.43,2.991,1.935-7.945,4.408-7.945,4.408Z" transform="translate(-325.596 -222.756)" fill="#ffb8b8"/>
        <circle id="Ellipse_95" data-name="Ellipse 95" cx="2.926" cy="2.926" r="2.926" transform="translate(36.465 3.962)" fill="#ffb8b8"/>
        <path id="Path_29087" data-name="Path 29087" d="M306.342,184.479a5.047,5.047,0,0,1,.408-7.39,8.752,8.752,0,0,1,2.2-1.463l2.14-5.985a3.261,3.261,0,0,1,3.014-2.168,3.121,3.121,0,0,1,3.028,1.947,2.709,2.709,0,0,1,.084,1.919,30.82,30.82,0,0,1-2.5,5.713l.111.885,5.41.481-.05.082a32.721,32.721,0,0,1-6.061,6.754,5.566,5.566,0,0,1-3.486,1.295A5.777,5.777,0,0,1,306.342,184.479Z" transform="translate(-276.284 -156.735)" fill="#fff"/>
        <path id="Path_29088" data-name="Path 29088" d="M291.141,100.793a5.122,5.122,0,0,0,.918-2.209,13.15,13.15,0,0,1,1.129-3.636,3.524,3.524,0,0,1,3.054-1.958,3.586,3.586,0,0,1,2.831,2.245,1.007,1.007,0,0,1,.818.039A.744.744,0,0,1,300.1,96.4a2.7,2.7,0,0,1,2.2-.055,2.661,2.661,0,0,1,1.612,2.258,1.451,1.451,0,0,1-.386,1.088c-.561.578-1.356.379-2.062.231-.667-.139-1.479-.177-1.855.459a1.191,1.191,0,0,0-.116.87,3.072,3.072,0,0,0,1.069,1.5l.074.138a3.272,3.272,0,0,1-1.681-6.308h0a.58.58,0,0,1-.521-.869,2.758,2.758,0,0,0-1.408-.351,2.557,2.557,0,0,0-1.912,1.309,7.909,7.909,0,0,0-.8,2.263,6.942,6.942,0,0,1-.844,2.243,3.569,3.569,0,0,1-5.719.293A2.849,2.849,0,0,0,291.141,100.793Z" transform="translate(-261.592 -92.986)" fill="#2f2e41"/>
        <circle id="Ellipse_96" data-name="Ellipse 96" cx="4.254" cy="4.254" r="4.254" transform="translate(46.788 7.274)" fill="#1ed7b5"/>
        <path id="Path_29089" data-name="Path 29089" d="M459.106,159.735a.184.184,0,0,1-.054-.131V154.9a.185.185,0,1,1,.37,0V159.6a.185.185,0,0,1-.316.131Z" transform="translate(-408.196 -145.815)" fill="#fff"/>
        <path id="Path_29090" data-name="Path 29090" d="M442.775,171.359a.185.185,0,0,1,.131-.316h4.708a.185.185,0,1,1,0,.37h-4.708A.184.184,0,0,1,442.775,171.359Z" transform="translate(-394.218 -159.793)" fill="#fff"/>
        <path id="Path_29091" data-name="Path 29091" d="M389.383,188.806a1.257,1.257,0,0,0-.079.181l-5.711,1.515-1.014-1.016-1.733,1.33,2.074,2.526,6.839-2.923a1.251,1.251,0,1,0-.376-1.612Z" transform="translate(-341.261 -174.433)" fill="#ffb8b8"/>
        <path id="Path_29092" data-name="Path 29092" d="M360.838,179.05l-3.286-3.286a1.608,1.608,0,1,1,2.275-2.275l3.286,3.286a.536.536,0,0,1,0,.758L361.6,179.05A.537.537,0,0,1,360.838,179.05Z" transform="translate(-320.922 -161.483)" fill="#ccc"/>
      </g>
      <rect id="Rectangle_2937" data-name="Rectangle 2937" width="185" height="185" transform="translate(376 1487)" fill="none"/>
    </g>
  </g>
</svg>
