<svg xmlns="http://www.w3.org/2000/svg" xmlns:xlink="http://www.w3.org/1999/xlink" width="1680" height="804" viewBox="0 0 1680 804"><defs><style>.a{fill:none;}.b{clip-path:url(#a);}.c{opacity:0.336;}.c,.d{fill:url(#b);}.e{opacity:0.183;}.f{fill:#fff;}</style><clipPath id="a"><rect class="a" width="1680" height="804"/></clipPath><linearGradient id="b" x1="0.038" y1="0.062" x2="0.994" y2="0.934" gradientUnits="objectBoundingBox"><stop offset="0" stop-color="#f0f9a7"/><stop offset="1" stop-color="#1ed7b5"/></linearGradient></defs><g class="b"><rect class="c" width="1680" height="802"/><path class="d" d="M0,88.626s45.163-62.235,287.947-43.9,432.868,90.366,683.188,90.366C1391.135,135.089,1680,0,1680,0V575.991s-88.622-143.8-374.57-149.977S558.9,538.139,357.727,575.991,0,511.488,0,511.488Z" transform="translate(0 398)"/><g class="e" transform="translate(890.005 71.658)"><path class="f" d="M165.715,406.212a18,18,0,0,0,0,35.994c90.551,0,164.218-73.667,164.218-164.218S256.266,113.771,165.715,113.771a18,18,0,1,0,0,35.994,128.223,128.223,0,1,1,0,256.447Z" transform="translate(145.794 142.174)"/><path class="f" d="M165.716,546.481c130.869,0,237.338-106.469,237.338-237.338A236.931,236.931,0,0,0,257.6,90.254a18,18,0,1,0-13.948,33.182A201.013,201.013,0,0,1,367.058,309.142c0,111.023-90.321,201.344-201.344,201.344a18,18,0,1,0,0,35.994Z" transform="translate(145.793 111.021)"/><path class="f" d="M495.7,359.224c0,151.339-123.123,274.464-274.464,274.464a18,18,0,1,0,0,35.994c171.187,0,310.459-139.271,310.459-310.459S392.422,48.765,221.234,48.765a309.542,309.542,0,0,0-106.091,18.6,18,18,0,0,0,12.3,33.828,273.649,273.649,0,0,1,93.792-16.438C372.575,84.759,495.7,207.885,495.7,359.224Z" transform="translate(90.275 60.939)"/><path class="f" d="M659.074,399.83c0,191.648-155.917,347.565-347.564,347.565a18,18,0,1,0,0,35.994c211.5,0,383.559-172.062,383.559-383.559S523.006,16.271,311.509,16.271c-104.688,0-202.487,41.4-275.382,116.568A18,18,0,1,0,61.969,157.9C128.026,89.781,216.648,52.265,311.512,52.265,503.16,52.265,659.074,208.182,659.074,399.83Z" transform="translate(0 20.333)"/><path class="f" d="M348.421,1.512A18,18,0,1,0,334,34.492,420.9,420.9,0,0,1,586.4,420.163c0,231.966-188.719,420.685-420.685,420.685a18,18,0,0,0,0,35.994c251.815,0,456.679-204.865,456.679-456.679A456.886,456.886,0,0,0,348.421,1.512Z" transform="translate(145.794 0)"/></g></g></svg>