<svg xmlns="http://www.w3.org/2000/svg" width="36" height="36" viewBox="0 0 36 36"><defs><style>.a{fill:#ff7791;}.b{fill:none;}</style></defs><g transform="translate(-361 -406)"><g transform="translate(362 363.94)"><g transform="translate(0 47.06)"><path class="a" d="M32.4,50.28a.783.783,0,0,0-.589-.661.934.934,0,0,0-.359-.073h-.318a.923.923,0,0,0-.288.05.955.955,0,0,0-.169-.021c-1.262,0-2.524-.007-3.786-.011-.027-.421-.045-.843-.048-1.268a.959.959,0,0,0-1.917,0c0,.421.019.842.045,1.262-1.112,0-2.224,0-3.335-.01-.035-.469-.062-.939-.065-1.412a.959.959,0,0,0-1.918,0c0,.47.028.938.062,1.4l-3.3-.013c-.032-.518-.067-1.035-.12-1.551-.124-1.218-2.043-1.23-1.918,0,.052.514.088,1.03.119,1.545-1.131,0-2.262-.011-3.392-.01q-.143-.654-.277-1.311c-.244-1.211-2.092-.7-1.849.51.054.269.112.538.168.806-1.054,0-2.108,0-3.162.009-.079-.338-.166-.674-.271-1.006-.371-1.175-2.222-.673-1.849.51.054.17.092.343.137.514-.856.009-1.712.017-2.568.03a.92.92,0,0,0-.577.2A.871.871,0,0,0,0,50.694c.153,6.557.191,14.646.8,21.182a1.075,1.075,0,0,0,.051.236.985.985,0,0,0,.908.883c10.368.866,21.186,2.015,31.413-.513a.86.86,0,0,0,.678-.975,1.018,1.018,0,0,0,.026-.269C33.57,64.737,33.618,56.7,32.4,50.28ZM1.934,51.488c.822-.012,1.644-.012,2.466-.02.094.644.167,1.292.233,1.943.122,1.218,2.041,1.23,1.918,0-.066-.653-.133-1.308-.219-1.959,1.086-.007,2.173-.007,3.259-.009.157.637.324,1.272.51,1.9a.96.96,0,0,0,1.849-.51c-.137-.464-.262-.931-.383-1.4,1.015,0,2.03.006,3.045.008.024.389.052.777.089,1.166.113,1.221,2.032,1.231,1.917,0-.036-.386-.064-.773-.088-1.16l3.4.012c.069.469.147.936.238,1.4.235,1.213,2.084.7,1.849-.51-.057-.3-.107-.591-.155-.886,1.1,0,2.207,0,3.31.008.075.518.159,1.035.269,1.547.257,1.209,2.105.7,1.849-.51Q27.18,52,27.1,51.484c1.193,0,2.386.008,3.579.009.25,1.432.435,2.869.58,4.309-9.743-.125-19.484.157-29.222.466C2,54.675,1.969,53.081,1.934,51.488Zm.722,19.666c-.33-3.808-.478-9.151-.575-12.97,9.778-.309,19.558-.593,29.342-.463.292,3.837.346,9.222.515,13.072C22.4,72.981,12.322,71.973,2.656,71.154Z" transform="translate(0 -47.06)"/><path class="a" d="M238.637,224.573a1.221,1.221,0,0,0,0,2.432A1.221,1.221,0,0,0,238.637,224.573Z" transform="translate(-220.077 -211.531)"/><path class="a" d="M302.335,223.2a1.221,1.221,0,0,0,0,2.432A1.221,1.221,0,0,0,302.335,223.2Z" transform="translate(-279.095 -210.255)"/><path class="a" d="M366.034,220.434a1.221,1.221,0,0,0,0,2.432A1.221,1.221,0,0,0,366.034,220.434Z" transform="translate(-338.114 -207.696)"/><path class="a" d="M238.637,274.238a1.221,1.221,0,0,0,0,2.432A1.221,1.221,0,0,0,238.637,274.238Z" transform="translate(-220.077 -257.547)"/><path class="a" d="M302.335,272.856a1.221,1.221,0,0,0,0,2.432A1.221,1.221,0,0,0,302.335,272.856Z" transform="translate(-279.095 -256.266)"/><path class="a" d="M366.034,270.094a1.222,1.222,0,0,0,0,2.433A1.222,1.222,0,0,0,366.034,270.094Z" transform="translate(-338.114 -253.707)"/><path class="a" d="M56.643,272.315a1.221,1.221,0,0,0-.065,2.431A1.221,1.221,0,0,0,56.643,272.315Z" transform="translate(-51.424 -255.765)"/><path class="a" d="M120.356,272.853a1.222,1.222,0,0,0-.065,2.432A1.222,1.222,0,0,0,120.356,272.853Z" transform="translate(-110.455 -256.263)"/><path class="a" d="M184.1,272.011a1.222,1.222,0,0,0-.065,2.432A1.222,1.222,0,0,0,184.1,272.011Z" transform="translate(-169.517 -255.483)"/><path class="a" d="M56.643,321.978a1.222,1.222,0,0,0-.065,2.432A1.222,1.222,0,0,0,56.643,321.978Z" transform="translate(-51.424 -301.779)"/><path class="a" d="M120.356,322.516a1.222,1.222,0,0,0-.065,2.432A1.222,1.222,0,0,0,120.356,322.516Z" transform="translate(-110.455 -302.278)"/><path class="a" d="M184.1,321.679a1.221,1.221,0,0,0-.065,2.431A1.221,1.221,0,0,0,184.1,321.679Z" transform="translate(-169.517 -301.502)"/></g></g><rect class="b" width="36" height="36" transform="translate(361 406)"/></g></svg>