<svg xmlns="http://www.w3.org/2000/svg" width="36" height="36" viewBox="0 0 36 36"><defs><style>.a{fill:none;}.b{fill:#ff7791;}</style></defs><g transform="translate(-361 -406)"><rect class="a" width="36" height="36" transform="translate(361 406)"/><g transform="translate(363.193 369.445)"><g transform="translate(0 41.555)"><path class="b" d="M31.6,43.108a.879.879,0,0,0-.663-1.4c-7.858-.174-21.9-.329-29.74.343a.881.881,0,0,0-.411.14.82.82,0,0,0-.446.717C.1,48.1.16,60.5,0,65.7a.9.9,0,0,0,.027.241.793.793,0,0,0,.6.757c7.784,2.234,22.224.681,30.14.2a.838.838,0,0,0,.595-.281.717.717,0,0,0,.434-.747C31.474,60.686,31.387,48.557,31.6,43.108ZM2.024,43.7c7.214-.566,20.625-.463,27.854-.306-.04,1.086-.068,2.315-.086,3.621-9.289-.07-18.576.165-27.864.256C1.953,45.982,1.984,44.77,2.024,43.7Zm-.3,21.52c.095-3.365.106-11.65.173-16.234,9.292-.091,18.583-.326,27.876-.256-.028,4.672.069,13.053.272,16.5C22.736,65.737,8.921,67.084,1.727,65.222Z" transform="translate(0 -41.555)"/><path class="b" d="M50.659,86.727a.858.858,0,0,0,0,1.714A.858.858,0,0,0,50.659,86.727Z" transform="translate(-46.545 -83.749)"/><path class="b" d="M96.157,85.427a.858.858,0,0,0,0,1.714A.858.858,0,0,0,96.157,85.427Z" transform="translate(-89.043 -82.534)"/><path class="b" d="M144.256,82.828a.858.858,0,0,0,0,1.714A.858.858,0,0,0,144.256,82.828Z" transform="translate(-133.971 -80.107)"/><path class="b" d="M94.231,189.413c-6.283.246-12.573.185-18.856.429-1.1.043-1.106,1.757,0,1.714,6.283-.243,12.573-.182,18.856-.429C95.332,191.084,95.337,189.369,94.231,189.413Z" transform="translate(-69.632 -179.664)"/><path class="b" d="M94.231,246.614c-6.283.246-12.573.185-18.856.428-1.1.043-1.106,1.757,0,1.714,6.283-.243,12.573-.182,18.856-.428C95.332,248.285,95.337,246.57,94.231,246.614Z" transform="translate(-69.632 -233.093)"/><path class="b" d="M94.231,309.012c-6.283.246-12.573.185-18.856.429-1.1.043-1.106,1.757,0,1.714,6.283-.243,12.573-.182,18.856-.429C95.332,310.683,95.337,308.968,94.231,309.012Z" transform="translate(-69.632 -291.377)"/></g></g></g></svg>