<svg xmlns="http://www.w3.org/2000/svg" width="36" height="36" viewBox="0 0 36 36"><defs><style>.a{fill:none;}.b{fill:#ff7791;}</style></defs><g transform="translate(-361 -406)"><rect class="a" width="36" height="36" transform="translate(361 406)"/><g transform="translate(358.818 406)"><g transform="translate(3.182 0)"><path class="b" d="M19.055.187C9.8,1.663,2.181,9.171,3.29,18.907c.787,6.905,7.107,17.007,14.983,15.948,8.994,1.577,18.155-7.329,18.749-16.067C37.71,8.649,29.708-1.512,19.055.187Zm2.7,30.985a.651.651,0,0,0-.365-.061c-9.826,1.4-16.62-9.025-13.774-17.843A14.534,14.534,0,0,1,23.25,3.663c6.191.947,9.843,6.466,10.359,12.349C34.247,23.272,28.463,29.531,21.758,31.172Z" transform="translate(-3.182 0)"/><path class="b" d="M38.843,54.854c.22-1.192.313-2.4.436-3.609A13.253,13.253,0,0,0,39.6,47.9c-.123-.7-1-.615-1.339-.175-.513.672-.334,2.074-.373,2.864-.068,1.4-.141,2.791-.207,4.187a1.414,1.414,0,0,0-.41.147.772.772,0,0,0-.368.516c-3.538.2-7.086.279-10.62.506h0a.577.577,0,0,0,0,1.152c3.236.231,6.977.566,10.285-.017a.815.815,0,0,0,.108.214,1.347,1.347,0,0,0,1.949.117,1.837,1.837,0,0,0,.971-1.751A1.045,1.045,0,0,0,38.843,54.854Z" transform="translate(-21.637 -38.769)"/><path class="b" d="M48.965,63.865c-.368-.451-1.069-.533-1.579-.751-.486-.208-.918.464-.427.73a4.165,4.165,0,0,0,1.738.667A.382.382,0,0,0,48.965,63.865Z" transform="translate(-38.822 -51.605)"/><path class="b" d="M66.338,45.734a7.021,7.021,0,0,0-1.148-.821c-.436-.248-.963.381-.551.714.331.268.638.566.944.861a2.324,2.324,0,0,0,1.011.738.416.416,0,0,0,.5-.505A2.029,2.029,0,0,0,66.338,45.734Z" transform="translate(-53.342 -36.7)"/><path class="b" d="M97.47,25.987a2.916,2.916,0,0,0-.19,1.748.354.354,0,0,0,.708,0,5.993,5.993,0,0,1,.291-1.407C98.443,25.845,97.715,25.557,97.47,25.987Z" transform="translate(-80.134 -21.09)"/><path class="b" d="M128.545,47.78c-.656.262-.874.94-1.112,1.553-.147.379.433.587.633.267a7.76,7.76,0,0,0,.91-1.389A.352.352,0,0,0,128.545,47.78Z" transform="translate(-104.82 -39.076)"/><path class="b" d="M143.063,62.494a1.134,1.134,0,0,1-.74.467.55.55,0,0,0-.4.532.564.564,0,0,0,.551.552,1.627,1.627,0,0,0,1.575-.793C144.367,62.647,143.544,61.938,143.063,62.494Z" transform="translate(-116.691 -50.966)"/><path class="b" d="M149.876,96.328c-.716-.178-1.455-.058-2.174-.233a.5.5,0,0,0-.267.97,4.3,4.3,0,0,0,2.442.2A.49.49,0,0,0,149.876,96.328Z" transform="translate(-120.918 -78.607)"/><path class="b" d="M138.763,121.03c-.348-.089-.595.433-.251.6a2.894,2.894,0,0,1,.795.559,1.637,1.637,0,0,0,.8.575.342.342,0,0,0,.416-.416C140.37,121.625,139.412,121.2,138.763,121.03Z" transform="translate(-113.769 -99.014)"/><path class="b" d="M129.2,139.379c-.142-.506-.7-.853-1-1.265-.191-.262-.7-.116-.566.239a6.249,6.249,0,0,0,.774,1.362A.438.438,0,0,0,129.2,139.379Z" transform="translate(-104.987 -112.89)"/><path class="b" d="M92.869,152.2a.465.465,0,0,0-.89,0,3.432,3.432,0,0,0,.011,1.121,9.169,9.169,0,0,0,.1,1.2.344.344,0,0,0,.66,0,9.172,9.172,0,0,0,.1-1.2A3.437,3.437,0,0,0,92.869,152.2Z" transform="translate(-75.795 -124.253)"/><path class="b" d="M68.475,141.012a2.826,2.826,0,0,0-.53,2.032.263.263,0,0,0,.5,0,2.3,2.3,0,0,1,.621-1.437C69.648,141.174,68.851,140.437,68.475,141.012Z" transform="translate(-56.142 -115.198)"/><path class="b" d="M45.213,124.47c-.4.47-.7,1-1.066,1.493-.335.442.347.852.714.551.44-.361.763-.831,1.183-1.213C46.61,124.785,45.7,123.894,45.213,124.47Z" transform="translate(-36.624 -101.683)"/></g></g></g></svg>