<svg xmlns="http://www.w3.org/2000/svg" width="36" height="36" viewBox="0 0 36 36"><defs><style>.a{fill:none;}.b{fill:#ff7791;}</style></defs><g transform="translate(-361 -406)"><rect class="a" width="36" height="36" transform="translate(361 406)"/><g transform="translate(332.287 409.38)"><g transform="translate(34.713 0)"><path class="b" d="M58.921.5a.624.624,0,0,0-.656-.5h0c-4.574.111-7.741.117-12.316.117a.73.73,0,0,1-.292,0c-4.575,0-5.631-.006-10.2-.117h0A.625.625,0,0,0,34.8.5a1.051,1.051,0,0,0-.048.2,4.808,4.808,0,0,0,.384,2.554.672.672,0,0,0,.671.613l.4.01a7.868,7.868,0,0,0,2.908,5.3,39.7,39.7,0,0,1,4.343,4.589c-3.043,2.058-5.5,7.163-6.155,11.069-.38.009-.76.015-1.14.028a.773.773,0,0,0-.182.029.665.665,0,0,0-.731.862,13.858,13.858,0,0,1,.469,1.994.117.117,0,0,0,0,.015.654.654,0,0,0,.674.619c3.326,0,6.65.013,9.969.235a.059.059,0,0,0,.047-.027.692.692,0,0,0,.245.027c3.32-.222,7.348-.234,10.673-.235A.655.655,0,0,0,58,27.765a.1.1,0,0,0,0-.015,13.92,13.92,0,0,1,.469-1.994.665.665,0,0,0-.731-.862.745.745,0,0,0-.182-.029c-.38-.012-.76-.018-1.14-.028-.653-3.906-3.112-9.012-6.155-11.069a39.7,39.7,0,0,1,4.343-4.589,7.87,7.87,0,0,0,2.908-5.3l.4-.01a.673.673,0,0,0,.672-.613A4.815,4.815,0,0,0,58.968.7,1.042,1.042,0,0,0,58.921.5ZM56.874,26.257c-.057.239-.107.48-.153.721-3.124,0-6.95.025-10.068.233a.748.748,0,0,0-.231.055c-.018-.032-.038-.053-.06-.055C43.243,27,40.121,26.98,37,26.978c-.046-.242-.1-.483-.153-.721q4.759-.133,9.517.016c.019,0,.035-.014.05-.035a.71.71,0,0,0,.241.035C49.826,26.171,53.7,26.168,56.874,26.257ZM48.7,13.485a.547.547,0,0,0-.024.7.713.713,0,0,0,.277.385C51.6,16.463,54.307,21.334,55,24.8c-2.549-.041-5.8-.02-8.352.062a.733.733,0,0,0-.235.048c-.017-.028-.035-.047-.057-.048q-3.824-.123-7.648-.062c.7-3.47,3.409-8.341,6.05-10.239a.715.715,0,0,0,.277-.385.546.546,0,0,0-.024-.7c-2.541-3.349-6.794-5.025-7.41-9.571,3.064.072,4.344.1,8.168.191.01,0,.019,0,.028,0s.018,0,.028,0c3.824-.1,7.215-.119,10.279-.191C55.5,8.46,51.242,10.137,48.7,13.485ZM57.394,2.473c-4.323.1-7.24.116-11.562.224l-.028,0-.028,0c-4.323-.108-5.128-.125-9.451-.224a3.264,3.264,0,0,1-.2-1.053c4.351.1,5.184.1,9.536.1a.737.737,0,0,1,.292,0c4.352,0,7.3-.008,11.647-.1A3.268,3.268,0,0,1,57.394,2.473Z" transform="translate(-34.713 0)"/><path class="b" d="M132.988,111.852a.647.647,0,0,0-.013.915c1.62,1.729,3.3,2.406,5.077,3.973a.677.677,0,0,0,.3.154.612.612,0,0,0,.727.06c2.341-1.33,4.222-2.234,5.756-4.431a.621.621,0,0,0-.561-.962.668.668,0,0,0-.231-.034q-5.242.159-10.485,0A.577.577,0,0,0,132.988,111.852Zm9.93,1.024c-1.171,1.465-2.546,1.741-4.157,2.721-1.331-1.186-2.607-1.434-3.846-2.715Q138.917,112.968,142.918,112.876Z" transform="translate(-126.676 -104.573)"/><path class="b" d="M138.325,246.35a.639.639,0,0,0-.355.093,11.3,11.3,0,0,0-5.271,7.238.624.624,0,0,0,.122.563.548.548,0,0,0,.627.5,87.206,87.206,0,0,1,10.484-.11.611.611,0,0,0,.634-.719.661.661,0,0,0,.005-.34,10.77,10.77,0,0,0-5.6-7.238A.646.646,0,0,0,138.325,246.35Zm4.792,6.932a86.4,86.4,0,0,0-8.955.081,9.862,9.862,0,0,1,4.415-5.737A9.4,9.4,0,0,1,143.116,253.282Z" transform="translate(-126.571 -230.902)"/></g></g></g></svg>