<svg xmlns="http://www.w3.org/2000/svg" width="36" height="36" viewBox="0 0 36 36"><defs><style>.a{fill:none;}.b{fill:#ff7791;}</style></defs><g transform="translate(-361 -406)"><rect class="a" width="36" height="36" transform="translate(361 406)"/><g transform="translate(363.454 390.505)"><g transform="translate(-0.002 18.939)"><path class="b" d="M89.285,29.015a6.019,6.019,0,0,0,3.484,1.153,6.368,6.368,0,0,0,4.411-1.883c.334-.324.684-.7.778-.815a.968.968,0,0,0,.111-.166,5.541,5.541,0,0,0-.552-6.456c-.369-.434-.7-.8-.814-.915a.928.928,0,0,0-.22-.154,7.1,7.1,0,0,0-3.259-.839A6.889,6.889,0,0,0,88.964,20.5a.86.86,0,0,0-.153.151c-.1.123-.405.546-.681.951A5.14,5.14,0,0,0,89.285,29.015Zm.772-7.063a.931.931,0,0,0,.074-.09,3.334,3.334,0,0,1,.968-.718,4.63,4.63,0,0,1,3.319-.321,3.987,3.987,0,0,1,1.653,1.021,3.687,3.687,0,0,1,.885,3.653,3.5,3.5,0,0,1-.468,1.012,4.337,4.337,0,0,1-7.425-.554A3.541,3.541,0,0,1,90.057,21.952Z" transform="translate(-81.21 -18.939)"/><path class="b" d="M23.256,209.585c-.549.014-1.07.029-1.538.044.01.167.021.335.03.5.08,1.647.133,3.294.173,4.941.022.934.031,1.867.035,2.8-1.1,0-2.2.013-3.305.07-.059-2.361-.179-5.321-.279-7.091-.054-.969-1.566-.975-1.511,0,.123,2.2.28,6.246.31,8.685-3.462-.013-6.924-.068-10.386-.08-.011-2.43-.057-6.341-.061-8.48a.756.756,0,0,0-1.511,0c0,1.592.029,4.169.047,6.384-1.221.056-2.443.069-3.665.071-.171-3.393-.04-6.785.028-10.18a2.457,2.457,0,0,1,1.47-1.319c2.143-.226,4.3-.318,6.45-.35s4.324,0,6.485.024c.768.008,1.536,0,2.3-.006a1.4,1.4,0,0,1,.739-.7,1.575,1.575,0,0,1-.739-.823c-.511.011-1.023.029-1.529.024-1.112-.01-2.224-.025-3.335-.035-2.225-.02-4.451-.019-6.674.081-1.248.056-2.495.143-3.737.275a.762.762,0,0,0-.311.031,3.927,3.927,0,0,0-2.466,2.11,1.022,1.022,0,0,0-.084.295.762.762,0,0,0-.083.339c-.071,3.612-.221,7.219,0,10.829a.736.736,0,0,0,.407.633.651.651,0,0,0,.464.177c1.429,0,2.858-.006,4.286-.072,0,.479.005.924.006,1.308a.755.755,0,0,0,.08.344.641.641,0,0,0,.635.441c4.041,0,8.081.083,12.122.088a.705.705,0,0,0,.572-1.1c0-.16,0-.329-.006-.5,1.157-.059,2.315-.069,3.475-.069a.663.663,0,0,0,.436-.151.727.727,0,0,0,.882-.72c0-2.365-.1-4.722-.173-7.086C23.283,210.744,23.274,210.165,23.256,209.585Z" transform="translate(0.002 -191.628)"/><path class="b" d="M281.561,97.6a.533.533,0,0,0,.245.056.736.736,0,0,0,.08,0c1.405-.168,10.059-.255,11.471-.338.86-.051.569-1.12.575-1.653.007-.587.329-1.613-.664-1.613h0c-1.439,0-10.116.006-11.555.085-.8.043-.607.886-.556,1.434C281.216,96.2,280.836,97.231,281.561,97.6Zm11.147-2.284a1.1,1.1,0,0,0,.026.766c-1,.061-9.235.131-10.228.234a2.431,2.431,0,0,0-.143-.944C283.4,95.328,291.673,95.316,292.708,95.314Z" transform="translate(-262.225 -89.001)"/><path class="b" d="M291.81,159.372c-1.437-.078-10.116-.084-11.555-.084-1.024,0-1.118,2.264-.505,3.02a.589.589,0,0,0,.417.247c.26.015.766.031,1.426.047,2.927.071,8.9.154,10.045.292a.621.621,0,0,0,.081,0,.533.533,0,0,0,.245-.056.656.656,0,0,0,.4-.582c.022-.309-.094-.67-.061-1.022.042-.437.327-1.122.04-1.522A.611.611,0,0,0,291.81,159.372Zm-.792,2.185c-.993-.1-9.231-.173-10.228-.234a1.094,1.094,0,0,0,.026-.766c1.035,0,9.311.014,10.346.056A2.437,2.437,0,0,0,291.019,161.558Z" transform="translate(-260.609 -149.864)"/><path class="b" d="M291.656,224.727a.585.585,0,0,0-.452-.191h0c-.994,0-5.444,0-8.574.031-1.4.012-2.538.03-2.982.054a.525.525,0,0,0-.242.081c-.8.474-.6,3.04.09,3.388a.531.531,0,0,0,.245.056.737.737,0,0,0,.08,0c.332-.04,1.069-.075,2.017-.106.472-.016,1-.031,1.55-.045,3.051-.078,6.99-.133,7.9-.187s.571-1.743.692-2.379A.64.64,0,0,0,291.656,224.727Zm-8.364,1.986c-.568.012-1.091.023-1.534.035-.645.018-1.123.037-1.318.057a2.434,2.434,0,0,0-.143-.944c.2-.008.657-.015,1.279-.02l1.578-.012c2.84-.016,6.794-.022,7.488-.024a1.1,1.1,0,0,0,.026.766C290,226.613,286.1,226.657,283.292,226.713Z" transform="translate(-260.161 -210.73)"/></g></g></g></svg>