<svg xmlns="http://www.w3.org/2000/svg" xmlns:xlink="http://www.w3.org/1999/xlink" width="215.285" height="272" viewBox="0 0 215.285 272">
  <defs>
    <linearGradient id="linear-gradient" x1="0.038" y1="0.062" x2="0.994" y2="0.934" gradientUnits="objectBoundingBox">
      <stop offset="0" stop-color="#f0f9a7"/>
      <stop offset="1" stop-color="#028cf3"/>
    </linearGradient>
    <filter id="Ellipse_42" x="24.285" y="81" width="191" height="191" filterUnits="userSpaceOnUse">
      <feOffset dx="3" dy="3" input="SourceAlpha"/>
      <feGaussianBlur stdDeviation="10" result="blur"/>
      <feFlood flood-opacity="0.161"/>
      <feComposite operator="in" in2="blur"/>
      <feComposite in="SourceGraphic"/>
    </filter>
  </defs>
  <g id="feature-2" transform="translate(-919 -1127)">
    <g id="amoeba1" transform="translate(-10 63)">
      <path id="Path_28812" data-name="Path 28812" d="M5579.866,1186.46c6.811-47.581,41.061-69.359,88.623-69.359s101.625,44.505,101.625,69.359-70.14,19.887-101.625,62.335,17.162,107.359-27.243,90.91S5573.056,1234.041,5579.866,1186.46Z" transform="translate(-4642.715 -40)" fill="url(#linear-gradient)"/>
      <rect id="Rectangle_2911" data-name="Rectangle 2911" width="205" height="269" transform="translate(929 1064)" fill="none"/>
    </g>
    <g id="illustration2">
      <g transform="matrix(1, 0, 0, 1, 919, 1127)" filter="url(#Ellipse_42)">
        <circle id="Ellipse_42-2" data-name="Ellipse 42" cx="65.5" cy="65.5" r="65.5" transform="translate(51.29 108)" fill="#fff"/>
      </g>
      <g id="undraw_reviews_lp8w" transform="translate(949 1217.272)">
        <path id="Path_28975" data-name="Path 28975" d="M851.552,451.467a2.423,2.423,0,0,1,.373-.08l5.037-10.236-1.538-2.306,3.176-2.776,3.993,4.886-8.132,11.835a2.414,2.414,0,1,1-2.909-1.324Z" transform="translate(-721.15 -377.511)" fill="#a0616a"/>
        <path id="Path_28976" data-name="Path 28976" d="M863.024,421.373a1.037,1.037,0,0,1-.234.184l-5.154,2.988a1.035,1.035,0,0,1-1.455-.453l-2.507-5.3a1.03,1.03,0,0,1,.354-1.3l3.2-2.173a1.036,1.036,0,0,1,1.315.125L863,419.931A1.036,1.036,0,0,1,863.024,421.373Z" transform="translate(-724.022 -361.399)" fill="#ccc"/>
        <path id="Path_28977" data-name="Path 28977" d="M704.089,480.556l-2.721.741-4.151-10.144,4.016-1.093Z" transform="translate(-557.851 -361.931)" fill="#a0616a"/>
        <path id="Path_28978" data-name="Path 28978" d="M3.424,0H8.863V3.424H0A3.424,3.424,0,0,1,3.424,0Z" transform="translate(138.057 120.015) rotate(-15.221)" fill="#2f2e41"/>
        <path id="Path_28979" data-name="Path 28979" d="M612.031,488.3h-2.82l-1.342-10.878h4.162Z" transform="translate(-489.056 -367.604)" fill="#a0616a"/>
        <path id="Path_28980" data-name="Path 28980" d="M593.482,521.212h5.439v3.424h-8.863A3.424,3.424,0,0,1,593.482,521.212Z" transform="translate(-475.342 -401.317)" fill="#2f2e41"/>
        <circle id="Ellipse_77" data-name="Ellipse 77" cx="5.65" cy="5.65" r="5.65" transform="translate(120.296 39.014)" fill="#a0616a"/>
        <path id="Path_28981" data-name="Path 28981" d="M806.064,526.976H802.21a1.038,1.038,0,0,1-1.034-.971c-1.148-18.256-.477-31.351,2.114-41.211a1.084,1.084,0,0,1,.042-.127l.206-.516a1.03,1.03,0,0,1,.961-.651h7.925a1.033,1.033,0,0,1,.786.361l1.076,1.256c.021.024.041.049.06.076,4.854,6.769,9.2,20,14.242,37.789a1.032,1.032,0,0,1-.681,1.269l-4.142,1.325a1.041,1.041,0,0,1-1.248-.536l-10.748-22.292a.805.805,0,0,0-1.523.241l-3.158,23.092A1.039,1.039,0,0,1,806.064,526.976Z" transform="translate(-683.262 -414.03)" fill="#2f2e41"/>
        <path id="Path_28982" data-name="Path 28982" d="M821.55,420.9h-.033l-9.626-.3a1.032,1.032,0,0,1-1-.91c-1.22-9.878,2.126-12.524,3.622-13.2a.8.8,0,0,0,.463-.631l.129-1.035a1.032,1.032,0,0,1,.2-.5,11.83,11.83,0,0,1,7.247-4.32,1.034,1.034,0,0,1,1.208.886l.194,1.487a.818.818,0,0,0,.164.389c4.89,6.393-.558,15.832-1.7,17.66h0A1.037,1.037,0,0,1,821.55,420.9Z" transform="translate(-690.959 -349.72)" fill="#ccc"/>
        <path id="Path_28983" data-name="Path 28983" d="M827.9,353.35a22.489,22.489,0,0,0-4.487-4.7,13.326,13.326,0,0,0-4.764-2.52,7.388,7.388,0,0,0-5.282.471c-1.6.849-3.249,2.536-3.259,4.345,0,.581.145,1.368.717,1.267l.166.022,4.142-.837,1.764,6.122a1.182,1.182,0,0,0,1.917.942c.064-.027.614-1.261.614-1.261a.23.23,0,0,1,.4-.066l.327.408a.46.46,0,0,0,.536.137l6.755-2.82c.311-.13.659-.3.749-.624A1.113,1.113,0,0,0,827.9,353.35Z" transform="translate(-690.555 -308.05)" fill="#2f2e41"/>
        <path id="Path_28984" data-name="Path 28984" d="M767.446,716.96h-69.24a.23.23,0,0,1,0-.46h69.24a.23.23,0,0,1,0,.46Z" transform="translate(-604.218 -593.433)" fill="#3f3d56"/>
        <path id="Path_28985" data-name="Path 28985" d="M818.713,539.361a.736.736,0,0,1-.435-.144l-1.047-.761a.507.507,0,0,0-.6,0l-1.047.761a.739.739,0,0,1-1.137-.826l.4-1.231a.508.508,0,0,0-.185-.569l-1.047-.761a.739.739,0,0,1,.435-1.337h1.294a.508.508,0,0,0,.484-.352l.4-1.231a.739.739,0,0,1,1.406,0l.4,1.231a.508.508,0,0,0,.484.352h1.294a.739.739,0,0,1,.435,1.337l-1.047.761a.508.508,0,0,0-.185.569l.4,1.231a.728.728,0,0,1-.268.826A.736.736,0,0,1,818.713,539.361Z" transform="translate(-693.022 -451.681)" fill="#1ed7b5"/>
        <path id="Path_28986" data-name="Path 28986" d="M841.053,467.051a2.471,2.471,0,0,0,.323-3.775l1.788-21.593-5.324.732-.1,20.98a2.485,2.485,0,0,0,3.314,3.656Z" transform="translate(-711.36 -381.832)" fill="#a0616a"/>
        <path id="Path_28987" data-name="Path 28987" d="M842.277,424.349a1.038,1.038,0,0,1-.294-.043l-5.715-1.681a1.035,1.035,0,0,1-.673-1.367l2.115-5.464a1.03,1.03,0,0,1,1.185-.638l3.776.821a1.036,1.036,0,0,1,.815,1.04l-.176,6.324A1.036,1.036,0,0,1,842.277,424.349Z" transform="translate(-710.125 -361.389)" fill="#ccc"/>
        <path id="Path_28988" data-name="Path 28988" d="M298.4,463.935H200.634a1.612,1.612,0,0,1-1.61-1.61V433.11a1.612,1.612,0,0,1,1.61-1.61H298.4a1.612,1.612,0,0,1,1.61,1.61v29.214A1.612,1.612,0,0,1,298.4,463.935ZM200.634,431.96a1.151,1.151,0,0,0-1.15,1.15v29.214a1.152,1.152,0,0,0,1.15,1.15H298.4a1.151,1.151,0,0,0,1.15-1.15V433.11a1.151,1.151,0,0,0-1.15-1.15Z" transform="translate(-199.024 -373.992)" fill="#3f3d56"/>
        <path id="Path_28989" data-name="Path 28989" d="M369.85,597.428a.9.9,0,0,1-.532-.176l-1.283-.932a.622.622,0,0,0-.733,0l-1.283.932a.906.906,0,0,1-1.394-1.012l.49-1.508a.622.622,0,0,0-.227-.7l-1.283-.932a.906.906,0,0,1,.532-1.638h1.586a.622.622,0,0,0,.593-.431l.49-1.508a.906.906,0,0,1,1.723,0l.49,1.508a.622.622,0,0,0,.593.431H371.2a.905.905,0,0,1,.532,1.638l-1.283.932a.622.622,0,0,0-.227.7l.49,1.508a.892.892,0,0,1-.329,1.012A.9.9,0,0,1,369.85,597.428Z" transform="translate(-325.459 -495.184)" fill="#1ed7b5"/>
        <path id="Path_28990" data-name="Path 28990" d="M426.358,597.428a.9.9,0,0,1-.532-.176l-1.283-.932a.622.622,0,0,0-.733,0l-1.283.932a.906.906,0,0,1-1.394-1.012l.49-1.508a.622.622,0,0,0-.227-.7l-1.283-.932a.906.906,0,0,1,.532-1.638h1.586a.622.622,0,0,0,.593-.431l.49-1.508a.906.906,0,0,1,1.722,0l.49,1.508a.622.622,0,0,0,.593.431h1.586a.906.906,0,0,1,.532,1.638l-1.283.932a.622.622,0,0,0-.227.7l.49,1.508a.892.892,0,0,1-.329,1.012A.9.9,0,0,1,426.358,597.428Z" transform="translate(-368.969 -495.184)" fill="#1ed7b5"/>
        <path id="Path_28991" data-name="Path 28991" d="M482.867,597.428a.9.9,0,0,1-.532-.176l-1.283-.932a.623.623,0,0,0-.733,0l-1.283.932a.905.905,0,0,1-1.393-1.012l.49-1.508a.622.622,0,0,0-.227-.7l-1.283-.932a.906.906,0,0,1,.532-1.638h1.586a.622.622,0,0,0,.593-.431l.49-1.508a.906.906,0,0,1,1.722,0l.49,1.508a.622.622,0,0,0,.593.431h1.586a.906.906,0,0,1,.532,1.638l-1.283.932a.622.622,0,0,0-.227.7l.49,1.508a.892.892,0,0,1-.329,1.012.9.9,0,0,1-.532.176Z" transform="translate(-412.479 -495.184)" fill="#1ed7b5"/>
        <path id="Path_28992" data-name="Path 28992" d="M539.375,597.428a.9.9,0,0,1-.532-.176l-1.283-.932a.622.622,0,0,0-.733,0l-1.283.932a.906.906,0,0,1-1.394-1.012l.49-1.508a.622.622,0,0,0-.227-.7l-1.283-.932a.906.906,0,0,1,.532-1.638h1.586a.622.622,0,0,0,.593-.431l.49-1.508a.905.905,0,0,1,1.722,0l.49,1.508a.622.622,0,0,0,.593.431h1.586a.906.906,0,0,1,.532,1.638l-1.283.932a.623.623,0,0,0-.227.7l.49,1.508a.892.892,0,0,1-.329,1.012A.9.9,0,0,1,539.375,597.428Z" transform="translate(-455.988 -495.184)" fill="#1ed7b5"/>
        <path id="Path_28993" data-name="Path 28993" d="M591.222,597.219a.992.992,0,0,1-.585-.193.98.98,0,0,1-.362-1.112l.49-1.508a.533.533,0,0,0-.194-.6l-1.283-.932a.995.995,0,0,1,.585-1.8h1.586a.533.533,0,0,0,.508-.369l.49-1.508a.995.995,0,0,1,1.892,0l.49,1.508a.533.533,0,0,0,.508.37h1.586a.995.995,0,0,1,.585,1.8l-1.283.932a.533.533,0,0,0-.194.6l.49,1.508A.995.995,0,0,1,595,597.025l-1.283-.932a.533.533,0,0,0-.629,0l-1.283.932A.991.991,0,0,1,591.222,597.219Zm2.182-1.688a.993.993,0,0,1,.584.19l1.283.932a.535.535,0,0,0,.823-.6l-.49-1.508a.992.992,0,0,1,.361-1.112l1.283-.932a.535.535,0,0,0-.314-.967h-1.586a.992.992,0,0,1-.946-.687l-.49-1.508a.535.535,0,0,0-1.017,0l-.49,1.508a.992.992,0,0,1-.946.687h-1.586a.535.535,0,0,0-.314.967l1.283.932a.992.992,0,0,1,.361,1.112l-.49,1.508a.535.535,0,0,0,.823.6l1.283-.932a.993.993,0,0,1,.585-.19Z" transform="translate(-499.2 -494.886)" fill="#3f3d56"/>
        <path id="Path_28994" data-name="Path 28994" d="M249.019,461.5a1.5,1.5,0,0,0,0,2.99H324.7a1.5,1.5,0,1,0,0-2.99Z" transform="translate(-236.367 -397.091)" fill="#ccc"/>
        <path id="Path_28995" data-name="Path 28995" d="M249.019,495.5a1.5,1.5,0,0,0,0,2.99H324.7a1.5,1.5,0,1,0,0-2.99Z" transform="translate(-236.367 -423.27)" fill="#ccc"/>
        <path id="Path_28996" data-name="Path 28996" d="M249.019,529.5a1.5,1.5,0,0,0,0,2.99H324.7a1.5,1.5,0,1,0,0-2.99Z" transform="translate(-236.367 -449.449)" fill="#ccc"/>
        <path id="Path_28997" data-name="Path 28997" d="M249.019,461.5a1.5,1.5,0,0,0,0,2.99H324.7a1.5,1.5,0,1,0,0-2.99Z" transform="translate(-236.367 -397.091)" fill="#ccc"/>
        <path id="Path_28998" data-name="Path 28998" d="M249.019,495.5a1.5,1.5,0,0,0,0,2.99H324.7a1.5,1.5,0,1,0,0-2.99Z" transform="translate(-236.367 -423.27)" fill="#ccc"/>
        <path id="Path_28999" data-name="Path 28999" d="M249.019,529.5a1.5,1.5,0,0,0,0,2.99H324.7a1.5,1.5,0,1,0,0-2.99Z" transform="translate(-236.367 -449.449)" fill="#ccc"/>
        <path id="Path_29000" data-name="Path 29000" d="M298.4,213.934H200.634a1.612,1.612,0,0,1-1.61-1.61V183.11a1.612,1.612,0,0,1,1.61-1.61H298.4a1.612,1.612,0,0,1,1.61,1.61v29.214A1.612,1.612,0,0,1,298.4,213.934ZM200.634,181.96a1.152,1.152,0,0,0-1.15,1.15v29.214a1.152,1.152,0,0,0,1.15,1.15H298.4a1.151,1.151,0,0,0,1.15-1.15V183.11a1.151,1.151,0,0,0-1.15-1.15Z" transform="translate(-199.024 -181.5)" fill="#3f3d56"/>
        <path id="Path_29001" data-name="Path 29001" d="M369.85,347.428a.9.9,0,0,1-.532-.176l-1.283-.932a.622.622,0,0,0-.733,0l-1.283.932a.906.906,0,0,1-1.394-1.012l.49-1.508a.622.622,0,0,0-.227-.7l-1.283-.932a.906.906,0,0,1,.532-1.638h1.586a.622.622,0,0,0,.593-.431l.49-1.508a.906.906,0,0,1,1.723,0l.49,1.508a.622.622,0,0,0,.593.431H371.2a.905.905,0,0,1,.532,1.638l-1.283.932a.622.622,0,0,0-.227.7l.49,1.508a.892.892,0,0,1-.329,1.012A.9.9,0,0,1,369.85,347.428Z" transform="translate(-325.459 -302.692)" fill="#1ed7b5"/>
        <path id="Path_29002" data-name="Path 29002" d="M426.358,347.428a.9.9,0,0,1-.532-.176l-1.283-.932a.622.622,0,0,0-.733,0l-1.283.932a.906.906,0,0,1-1.394-1.012l.49-1.508a.622.622,0,0,0-.227-.7l-1.283-.932a.906.906,0,0,1,.532-1.638h1.586a.622.622,0,0,0,.593-.431l.49-1.508a.906.906,0,0,1,1.722,0l.49,1.508a.622.622,0,0,0,.593.431h1.586a.906.906,0,0,1,.532,1.638l-1.283.932a.622.622,0,0,0-.227.7l.49,1.508a.892.892,0,0,1-.329,1.012A.9.9,0,0,1,426.358,347.428Z" transform="translate(-368.969 -302.692)" fill="#1ed7b5"/>
        <path id="Path_29003" data-name="Path 29003" d="M482.867,347.428a.9.9,0,0,1-.532-.176l-1.283-.932a.623.623,0,0,0-.733,0l-1.283.932a.905.905,0,0,1-1.393-1.012l.49-1.508a.622.622,0,0,0-.227-.7l-1.283-.932a.906.906,0,0,1,.532-1.638h1.586a.622.622,0,0,0,.593-.431l.49-1.508a.906.906,0,0,1,1.722,0l.49,1.508a.622.622,0,0,0,.593.431h1.586a.906.906,0,0,1,.532,1.638l-1.283.932a.622.622,0,0,0-.227.7l.49,1.508a.892.892,0,0,1-.329,1.012A.9.9,0,0,1,482.867,347.428Z" transform="translate(-412.479 -302.692)" fill="#1ed7b5"/>
        <path id="Path_29004" data-name="Path 29004" d="M591.222,347.219a.992.992,0,0,1-.585-.193.98.98,0,0,1-.362-1.112l.49-1.508a.533.533,0,0,0-.194-.6l-1.283-.932a.995.995,0,0,1,.585-1.8h1.586a.533.533,0,0,0,.508-.369l.49-1.508a.995.995,0,0,1,1.892,0l.49,1.508a.533.533,0,0,0,.508.369h1.586a.995.995,0,0,1,.585,1.8l-1.283.932a.533.533,0,0,0-.194.6l.49,1.508A.995.995,0,0,1,595,347.025l-1.283-.932a.533.533,0,0,0-.629,0l-1.283.932A.991.991,0,0,1,591.222,347.219Zm2.182-1.688a.993.993,0,0,1,.584.19l1.283.932a.535.535,0,0,0,.823-.6l-.49-1.508a.992.992,0,0,1,.361-1.112l1.283-.932a.535.535,0,0,0-.314-.967h-1.586a.992.992,0,0,1-.946-.687l-.49-1.508a.535.535,0,0,0-1.017,0l-.49,1.508a.992.992,0,0,1-.946.687h-1.586a.535.535,0,0,0-.314.967l1.283.932a.992.992,0,0,1,.361,1.112l-.49,1.508a.535.535,0,0,0,.823.6l1.283-.932A.993.993,0,0,1,593.4,345.531Z" transform="translate(-499.2 -302.394)" fill="#3f3d56"/>
        <path id="Path_29005" data-name="Path 29005" d="M534.222,347.058a.992.992,0,0,1-.585-.193.98.98,0,0,1-.361-1.112l.49-1.508a.533.533,0,0,0-.194-.6l-1.283-.932a.995.995,0,0,1,.585-1.8h1.586a.533.533,0,0,0,.508-.369l.49-1.508a.995.995,0,0,1,1.892,0l.49,1.508a.533.533,0,0,0,.508.369h1.586a.995.995,0,0,1,.585,1.8l-1.283.932a.533.533,0,0,0-.194.6l.49,1.508A.995.995,0,0,1,538,346.865l-1.283-.932a.533.533,0,0,0-.628,0l-1.283.932A.991.991,0,0,1,534.222,347.058Zm2.182-1.688a.992.992,0,0,1,.584.19l1.283.932a.535.535,0,0,0,.823-.6l-.49-1.508a.992.992,0,0,1,.361-1.112l1.283-.932a.535.535,0,0,0-.314-.967h-1.586a.992.992,0,0,1-.946-.687l-.49-1.508a.535.535,0,0,0-1.017,0l-.49,1.508a.992.992,0,0,1-.946.687h-1.586a.535.535,0,0,0-.314.967l1.283.932a.992.992,0,0,1,.361,1.112l-.49,1.508a.535.535,0,0,0,.823.6l1.283-.932A.993.993,0,0,1,536.4,345.37Z" transform="translate(-455.311 -302.27)" fill="#3f3d56"/>
        <path id="Path_29006" data-name="Path 29006" d="M249.019,211.5a1.5,1.5,0,0,0,0,2.99H324.7a1.5,1.5,0,1,0,0-2.99Z" transform="translate(-236.367 -204.599)" fill="#ccc"/>
        <path id="Path_29007" data-name="Path 29007" d="M249.019,245.5a1.5,1.5,0,0,0,0,2.99H324.7a1.5,1.5,0,1,0,0-2.99Z" transform="translate(-236.367 -230.778)" fill="#ccc"/>
        <path id="Path_29008" data-name="Path 29008" d="M249.019,279.5a1.5,1.5,0,0,0,0,2.99H324.7a1.5,1.5,0,1,0,0-2.99Z" transform="translate(-236.367 -256.957)" fill="#ccc"/>
        <path id="Path_29009" data-name="Path 29009" d="M249.019,211.5a1.5,1.5,0,0,0,0,2.99H324.7a1.5,1.5,0,1,0,0-2.99Z" transform="translate(-236.367 -204.599)" fill="#ccc"/>
        <path id="Path_29010" data-name="Path 29010" d="M249.019,245.5a1.5,1.5,0,0,0,0,2.99H324.7a1.5,1.5,0,1,0,0-2.99Z" transform="translate(-236.367 -230.778)" fill="#ccc"/>
        <path id="Path_29011" data-name="Path 29011" d="M249.019,279.5a1.5,1.5,0,0,0,0,2.99H324.7a1.5,1.5,0,1,0,0-2.99Z" transform="translate(-236.367 -256.957)" fill="#ccc"/>
      </g>
      <rect id="Rectangle_2936" data-name="Rectangle 2936" width="185" height="185" transform="translate(928 1195)" fill="none"/>
    </g>
  </g>
</svg>
